M48
; DRILL file {KiCad (6.0.10)} date Fri Apr 21 22:00:40 2023
; FORMAT={-:-/ absolute / inch / decimal}
; #@! TF.CreationDate,2023-04-21T22:00:40+03:00
; #@! TF.GenerationSoftware,Kicad,Pcbnew,(6.0.10)
; #@! TF.FileFunction,Plated,1,2,PTH
FMAT,2
INCH
; #@! TA.AperFunction,Plated,PTH,ViaDrill
T1C0.0157
; #@! TA.AperFunction,Plated,PTH,ComponentDrill
T2C0.0354
; #@! TA.AperFunction,Plated,PTH,ComponentDrill
T3C0.0390
; #@! TA.AperFunction,Plated,PTH,ComponentDrill
T4C0.0394
; #@! TA.AperFunction,Plated,PTH,ComponentDrill
T5C0.0402
; #@! TA.AperFunction,Plated,PTH,ComponentDrill
T6C0.0430
; #@! TA.AperFunction,Plated,PTH,ComponentDrill
T7C0.0512
; #@! TA.AperFunction,Plated,PTH,ComponentDrill
T8C0.0551
; #@! TA.AperFunction,Plated,PTH,ComponentDrill
T9C0.0590
; #@! TA.AperFunction,Plated,PTH,ComponentDrill
T10C0.0591
; #@! TA.AperFunction,Plated,PTH,ComponentDrill
T11C0.0866
; #@! TA.AperFunction,Plated,PTH,ComponentDrill
T12C0.1614
%
G90
G05
T1
X4.5625Y-5.1875
X5.3438Y-5.5938
X5.8438Y-4.5625
X5.8438Y-5.4062
X6.0Y-6.0625
X6.0938Y-5.2188
X6.4688Y-5.1875
X6.7812Y-3.8438
X7.2812Y-5.5
X7.3438Y-3.9375
X7.3438Y-4.2188
X7.4688Y-4.25
X7.5625Y-3.6562
X7.5625Y-4.5
X7.75Y-4.125
X7.8438Y-6.75
X7.9062Y-5.0938
X8.0Y-4.125
X8.25Y-4.0938
X8.3125Y-4.7188
X8.5Y-4.5625
X8.5625Y-5.0938
X8.625Y-6.1562
X8.75Y-4.3125
X8.75Y-5.0312
X8.7812Y-3.8125
X8.9375Y-5.9688
X9.0625Y-5.5625
X9.2812Y-5.5938
X9.3125Y-5.875
X9.3438Y-6.1875
X9.5Y-5.875
X9.5Y-6.25
X9.5Y-7.0938
X9.5625Y-4.0625
X9.5625Y-5.5312
X9.6875Y-3.9375
X9.6875Y-5.5312
X9.875Y-5.5625
X10.125Y-6.8438
X10.1562Y-4.375
X10.1562Y-4.4688
X10.1562Y-5.5312
X10.1875Y-4.4375
X10.1875Y-5.625
X10.1875Y-5.6875
X10.1875Y-5.75
X10.1875Y-5.8125
X10.2188Y-5.5625
X10.2188Y-7.4688
X10.25Y-4.3125
X10.25Y-5.0
X10.25Y-5.4375
X10.25Y-5.5938
X10.3125Y-4.6562
X10.3438Y-4.4688
X10.375Y-4.375
X10.5312Y-5.9062
X10.8125Y-7.4688
T3
X4.6619Y-5.3841
X4.9619Y-5.3841
X5.4099Y-5.0179
X5.4099Y-5.766
X5.7099Y-5.0179
X5.7099Y-5.766
X6.1323Y-6.1233
X6.149Y-4.6363
X6.1579Y-5.391
X6.4323Y-6.1233
X6.449Y-4.6363
X6.4579Y-5.391
X6.8812Y-4.4395
X6.8812Y-5.1875
X6.8812Y-5.9355
X7.1812Y-4.4395
X7.1812Y-5.1875
X7.1812Y-5.9355
X7.2464Y-6.0625
X7.5464Y-6.0625
X7.6293Y-4.2426
X7.6293Y-4.9906
X7.6293Y-5.7387
X7.9293Y-4.2426
X7.9293Y-4.9906
X7.9293Y-5.7387
X8.1952Y-6.8017
X8.3773Y-4.4788
X8.3773Y-5.2269
X8.3773Y-5.9749
X8.4952Y-6.8017
X8.6773Y-4.4788
X8.6773Y-5.2269
X8.6773Y-5.9749
X9.0332Y-6.8722
X9.1253Y-4.5576
X9.1253Y-5.3056
X9.1253Y-6.0536
X9.323Y-6.9498
X9.4253Y-4.5576
X9.4253Y-5.3056
X9.4253Y-6.0536
X9.7386Y-7.2112
X9.9985Y-7.3612
X10.3792Y-7.6917
X10.5914Y-7.9039
T4
X7.3019Y-6.2146
X7.3019Y-6.7854
X7.4003Y-6.7854
X7.4988Y-6.2146
X7.4988Y-6.7854
X10.0418Y-6.0
X10.1418Y-6.0
X10.2418Y-6.0
X10.3418Y-6.0
T5
X9.8063Y-3.925
X9.8063Y-4.025
X9.8063Y-4.125
X9.8063Y-4.225
X9.8063Y-4.325
X9.8063Y-4.425
X9.8063Y-4.525
X9.8063Y-4.625
X9.8063Y-4.725
X9.8063Y-4.825
X9.8063Y-4.925
X9.8063Y-5.025
X9.8063Y-5.125
X9.8063Y-5.225
X9.8063Y-5.325
X9.8063Y-5.425
X9.8063Y-5.525
X9.8063Y-5.625
X9.8063Y-5.725
X9.8063Y-5.825
X10.5062Y-3.925
X10.5062Y-4.025
X10.5062Y-4.125
X10.5062Y-4.225
X10.5062Y-4.325
X10.5062Y-4.425
X10.5062Y-4.525
X10.5062Y-4.625
X10.5062Y-4.725
X10.5062Y-4.825
X10.5062Y-4.925
X10.5062Y-5.025
X10.5062Y-5.125
X10.5062Y-5.225
X10.5062Y-5.325
X10.5062Y-5.425
X10.5062Y-5.525
X10.5062Y-5.625
X10.5062Y-5.725
X10.5062Y-5.825
T6
X9.8562Y-3.975
X9.8562Y-4.075
X9.8562Y-4.175
X9.8562Y-4.275
X9.8562Y-4.375
X9.8562Y-4.475
X9.8562Y-4.575
X9.8562Y-4.675
X9.8562Y-4.775
X9.8562Y-4.875
X9.8562Y-4.975
X9.8562Y-5.075
X10.4562Y-3.975
X10.4562Y-4.075
X10.4562Y-4.175
X10.4562Y-4.275
X10.4562Y-4.375
X10.4562Y-4.475
X10.4562Y-4.575
X10.4562Y-4.675
X10.4562Y-4.775
X10.4562Y-4.875
X10.4562Y-4.975
X10.4562Y-5.075
T7
X7.3003Y-6.2867
X7.5003Y-6.2867
T8
X7.2503Y-6.3867
X7.5503Y-6.3867
T9
X4.6372Y-4.9625
X4.6872Y-4.8625
X4.8872Y-4.8625
X4.9372Y-4.9625
X5.3852Y-4.5964
X5.4352Y-4.4964
X5.6352Y-4.4964
X5.6852Y-4.5964
X6.1332Y-4.2214
X6.1332Y-4.9694
X6.1332Y-5.7174
X6.1832Y-4.1214
X6.1832Y-4.8694
X6.1832Y-5.6174
X6.3832Y-4.1214
X6.3832Y-4.8694
X6.3832Y-5.6174
X6.4332Y-4.2214
X6.4332Y-4.9694
X6.4332Y-5.7174
X6.8812Y-4.0245
X6.8812Y-4.7725
X6.8812Y-5.5206
X6.9312Y-3.9245
X6.9312Y-4.6725
X6.9312Y-5.4206
X7.1312Y-3.9245
X7.1312Y-4.6725
X7.1312Y-5.4206
X7.1812Y-4.0245
X7.1812Y-4.7725
X7.1812Y-5.5206
X7.6293Y-3.8277
X7.6293Y-4.5757
X7.6293Y-5.3237
X7.6793Y-3.7277
X7.6793Y-4.4757
X7.6793Y-5.2237
X7.8793Y-3.7277
X7.8793Y-4.4757
X7.8793Y-5.2237
X7.9293Y-3.8277
X7.9293Y-4.5757
X7.9293Y-5.3237
X8.1952Y-6.3867
X8.2452Y-6.2867
X8.3773Y-4.0639
X8.3773Y-4.8119
X8.3773Y-5.5599
X8.4273Y-3.9639
X8.4273Y-4.7119
X8.4273Y-5.4599
X8.4452Y-6.2867
X8.4952Y-6.3867
X8.6273Y-3.9639
X8.6273Y-4.7119
X8.6273Y-5.4599
X8.6773Y-4.0639
X8.6773Y-4.8119
X8.6773Y-5.5599
X9.1253Y-4.1426
X9.1253Y-4.8906
X9.1253Y-5.6387
X9.1317Y-6.4694
X9.1753Y-4.0426
X9.1753Y-4.7906
X9.1753Y-5.5387
X9.2059Y-6.3858
X9.3753Y-4.0426
X9.3753Y-4.7906
X9.3753Y-5.5387
X9.3991Y-6.4375
X9.4215Y-6.5471
X9.4253Y-4.1426
X9.4253Y-4.8906
X9.4253Y-5.6387
X9.9512Y-6.8354
X10.0445Y-6.7738
X10.211Y-6.9854
X10.2177Y-6.8738
X10.663Y-7.3834
X10.7691Y-7.348
X10.8752Y-7.5955
X10.9105Y-7.4894
T10
X5.3852Y-5.3444
X5.4352Y-5.2444
X5.6352Y-5.2444
X5.6852Y-5.3444
T11
X9.75Y-3.7542
X9.8125Y-6.0312
X10.5Y-6.0312
T12
X5.1612Y-5.0704
X6.625Y-5.4434
X6.6572Y-4.4985
X7.0312Y-6.0938
X8.1533Y-4.3017
X8.8438Y-6.2188
X8.9013Y-5.3125
X8.9062Y-4.5938
X10.4688Y-7.1562
T2
G00X9.7077Y-6.1282
M15
G01X9.6841Y-6.1282
M16
G05
G00X9.7077Y-6.3093
M15
G01X9.6841Y-6.3093
M16
G05
G00X9.751Y-6.1282
M15
G01X9.7274Y-6.1282
M16
G05
G00X9.751Y-6.3093
M15
G01X9.7274Y-6.3093
M16
G05
G00X9.9085Y-6.1282
M15
G01X9.8848Y-6.1282
M16
G05
G00X9.9085Y-6.3093
M15
G01X9.8848Y-6.3093
M16
G05
G00X10.0266Y-6.1282
M15
G01X10.003Y-6.1282
M16
G05
G00X10.0266Y-6.3093
M15
G01X10.003Y-6.3093
M16
G05
T10
G00X7.1799Y-6.5157
M15
G01X7.1799Y-6.4646
M16
G05
G00X7.6208Y-6.5157
M15
G01X7.6208Y-6.4646
M16
G05
T0
M30
