M48
; DRILL file {KiCad (6.0.10)} date Fri Apr 21 22:00:40 2023
; FORMAT={-:-/ absolute / inch / decimal}
; #@! TF.CreationDate,2023-04-21T22:00:40+03:00
; #@! TF.GenerationSoftware,Kicad,Pcbnew,(6.0.10)
; #@! TF.FileFunction,NonPlated,1,2,NPTH
FMAT,2
INCH
; #@! TA.AperFunction,NonPlated,NPTH,ComponentDrill
T1C0.0591
; #@! TA.AperFunction,NonPlated,NPTH,ComponentDrill
T2C0.0670
; #@! TA.AperFunction,NonPlated,NPTH,ComponentDrill
T3C0.1570
%
G90
G05
T1
X9.8022Y-6.2188
X10.0778Y-6.2188
T2
X4.5872Y-5.0625
X4.9872Y-5.0625
X5.3352Y-4.6964
X5.3352Y-5.4444
X5.7352Y-4.6964
X5.7352Y-5.4444
X6.0832Y-4.3214
X6.0832Y-5.0694
X6.0832Y-5.8174
X6.4832Y-4.3214
X6.4832Y-5.0694
X6.4832Y-5.8174
X6.8312Y-4.1245
X6.8312Y-4.8725
X6.8312Y-5.6206
X7.2003Y-6.4867
X7.2313Y-4.1245
X7.2313Y-4.8725
X7.2313Y-5.6206
X7.5793Y-3.9277
X7.5793Y-4.6757
X7.5793Y-5.4237
X7.6003Y-6.4867
X7.9793Y-3.9277
X7.9793Y-4.6757
X7.9793Y-5.4237
X8.1452Y-6.4867
X8.3273Y-4.1639
X8.3273Y-4.9119
X8.3273Y-5.6599
X8.5452Y-6.4867
X8.7273Y-4.1639
X8.7273Y-4.9119
X8.7273Y-5.6599
X9.0576Y-6.5531
X9.0753Y-4.2426
X9.0753Y-4.9906
X9.0753Y-5.7387
X9.4439Y-6.6566
X9.4753Y-4.2426
X9.4753Y-4.9906
X9.4753Y-5.7387
X9.8579Y-6.897
X10.2043Y-7.097
X10.557Y-7.4187
X10.8398Y-7.7016
T3
X4.7872Y-5.0625
X5.5352Y-4.6964
X5.5352Y-5.4444
X6.2832Y-4.3214
X6.2832Y-5.0694
X6.2832Y-5.8174
X7.0312Y-4.1245
X7.0312Y-4.8725
X7.0312Y-5.6206
X7.4003Y-6.4867
X7.7793Y-3.9277
X7.7793Y-4.6757
X7.7793Y-5.4237
X8.3452Y-6.4867
X8.5273Y-4.1639
X8.5273Y-4.9119
X8.5273Y-5.6599
X9.2507Y-6.6048
X9.2753Y-4.2426
X9.2753Y-4.9906
X9.2753Y-5.7387
X10.0311Y-6.997
X10.6984Y-7.5601
T0
M30
