%TF.GenerationSoftware,KiCad,Pcbnew,(6.0.10)*%
%TF.CreationDate,2023-04-21T22:00:42+03:00*%
%TF.ProjectId,blaster,626c6173-7465-4722-9e6b-696361645f70,v1.0.0*%
%TF.SameCoordinates,Original*%
%TF.FileFunction,Soldermask,Bot*%
%TF.FilePolarity,Negative*%
%FSLAX46Y46*%
G04 Gerber Fmt 4.6, Leading zero omitted, Abs format (unit mm)*
G04 Created by KiCad (PCBNEW (6.0.10)) date 2023-04-21 22:00:42*
%MOMM*%
%LPD*%
G01*
G04 APERTURE LIST*
G04 Aperture macros list*
%AMRoundRect*
0 Rectangle with rounded corners*
0 $1 Rounding radius*
0 $2 $3 $4 $5 $6 $7 $8 $9 X,Y pos of 4 corners*
0 Add a 4 corners polygon primitive as box body*
4,1,4,$2,$3,$4,$5,$6,$7,$8,$9,$2,$3,0*
0 Add four circle primitives for the rounded corners*
1,1,$1+$1,$2,$3*
1,1,$1+$1,$4,$5*
1,1,$1+$1,$6,$7*
1,1,$1+$1,$8,$9*
0 Add four rect primitives between the rounded corners*
20,1,$1+$1,$2,$3,$4,$5,0*
20,1,$1+$1,$4,$5,$6,$7,0*
20,1,$1+$1,$6,$7,$8,$9,0*
20,1,$1+$1,$8,$9,$2,$3,0*%
G04 Aperture macros list end*
%ADD10C,1.801800*%
%ADD11C,4.087800*%
%ADD12C,2.386000*%
%ADD13RoundRect,0.050000X-0.889000X-0.889000X0.889000X-0.889000X0.889000X0.889000X-0.889000X0.889000X0*%
%ADD14RoundRect,0.050000X-0.450000X-0.600000X0.450000X-0.600000X0.450000X0.600000X-0.450000X0.600000X0*%
%ADD15C,2.005000*%
%ADD16C,5.100000*%
%ADD17RoundRect,0.050000X1.000000X-1.000000X1.000000X1.000000X-1.000000X1.000000X-1.000000X-1.000000X0*%
%ADD18C,2.100000*%
%ADD19RoundRect,0.050000X1.000000X-1.600000X1.000000X1.600000X-1.000000X1.600000X-1.000000X-1.600000X0*%
%ADD20C,1.600000*%
%ADD21O,2.300000X1.700000*%
%ADD22C,3.100000*%
%ADD23RoundRect,0.050000X-0.750000X0.500000X-0.750000X-0.500000X0.750000X-0.500000X0.750000X0.500000X0*%
%ADD24C,1.900000*%
%ADD25O,1.700000X2.100000*%
%ADD26RoundRect,0.050000X-1.257236X0.000000X0.000000X-1.257236X1.257236X0.000000X0.000000X1.257236X0*%
%ADD27RoundRect,0.050000X-0.742462X-0.106066X-0.106066X-0.742462X0.742462X0.106066X0.106066X0.742462X0*%
%ADD28O,1.700000X1.700000*%
%ADD29C,1.700000*%
%ADD30O,1.700000X1.800000*%
%ADD31O,1.800000X1.800000*%
%ADD32C,1.800000*%
%ADD33RoundRect,0.050000X-1.214397X-0.325397X0.325397X-1.214397X1.214397X0.325397X-0.325397X1.214397X0*%
%ADD34RoundRect,0.050000X-0.689711X-0.294615X0.089711X-0.744615X0.689711X0.294615X-0.089711X0.744615X0*%
%ADD35RoundRect,0.050000X-0.589958X-0.463087X0.279375X-0.696024X0.589958X0.463087X-0.279375X0.696024X0*%
%ADD36RoundRect,0.050000X-1.088798X-0.628618X0.628618X-1.088798X1.088798X0.628618X-0.628618X1.088798X0*%
G04 APERTURE END LIST*
D10*
%TO.C,S38*%
X211513750Y-105762500D03*
D11*
X216593750Y-105762500D03*
D10*
X221673750Y-105762500D03*
D12*
X219133750Y-100682500D03*
X214053750Y-100682500D03*
X212783750Y-103222500D03*
X220403750Y-103222500D03*
%TD*%
D13*
%TO.C,D5*%
X156411591Y-136930708D03*
D14*
X158571591Y-136930708D03*
D15*
X164031591Y-136930708D03*
D14*
X161871591Y-136930708D03*
%TD*%
D16*
%TO.C,*%
X207093750Y-109262500D03*
%TD*%
D13*
%TO.C,D8*%
X174783750Y-131762500D03*
D14*
X176943750Y-131762500D03*
D15*
X182403750Y-131762500D03*
D14*
X180243750Y-131762500D03*
%TD*%
%TO.C,D10*%
X195943750Y-145762500D03*
D13*
X193783750Y-145762500D03*
D14*
X199243750Y-145762500D03*
D15*
X201403750Y-145762500D03*
%TD*%
D14*
%TO.C,D17*%
X233943750Y-134762500D03*
D13*
X231783750Y-134762500D03*
D15*
X239403750Y-134762500D03*
D14*
X237243750Y-134762500D03*
%TD*%
D16*
%TO.C,*%
X169093750Y-114262500D03*
%TD*%
D17*
%TO.C, *%
X185468750Y-172350000D03*
D18*
X190468750Y-172350000D03*
X187968750Y-172350000D03*
D19*
X193568750Y-164850000D03*
X182368750Y-164850000D03*
D20*
X190468750Y-157850000D03*
X185468750Y-157850000D03*
%TD*%
D10*
%TO.C,S40*%
X230513750Y-126762500D03*
X240673750Y-126762500D03*
D11*
X235593750Y-126762500D03*
D12*
X233053750Y-121682500D03*
X238133750Y-121682500D03*
X231783750Y-124222500D03*
X239403750Y-124222500D03*
%TD*%
D13*
%TO.C,D16*%
X231783750Y-153762500D03*
D14*
X233943750Y-153762500D03*
X237243750Y-153762500D03*
D15*
X239403750Y-153762500D03*
%TD*%
D10*
%TO.C,S26*%
X135513750Y-119287500D03*
D11*
X140593750Y-119287500D03*
D10*
X145673750Y-119287500D03*
D12*
X138053750Y-114207500D03*
X143133750Y-114207500D03*
X136783750Y-116747500D03*
X144403750Y-116747500D03*
%TD*%
D13*
%TO.C,D6*%
X156183750Y-117762500D03*
D14*
X158343750Y-117762500D03*
D15*
X163803750Y-117762500D03*
D14*
X161643750Y-117762500D03*
%TD*%
D10*
%TO.C,S30*%
X183673750Y-142762500D03*
X173513750Y-142762500D03*
D11*
X178593750Y-142762500D03*
D12*
X176053750Y-137682500D03*
X181133750Y-137682500D03*
X182403750Y-140222500D03*
X174783750Y-140222500D03*
%TD*%
D14*
%TO.C,D4*%
X157921591Y-155530708D03*
D13*
X155761591Y-155530708D03*
D15*
X163381591Y-155530708D03*
D14*
X161221591Y-155530708D03*
%TD*%
D20*
%TO.C,TRRS1*%
X255975000Y-157956250D03*
X248975000Y-157956250D03*
D21*
X246275000Y-160256250D03*
X246275000Y-155656250D03*
X247375000Y-160256250D03*
X247375000Y-155656250D03*
X251375000Y-155656250D03*
X251375000Y-160256250D03*
X254375000Y-160256250D03*
X254375000Y-155656250D03*
%TD*%
D13*
%TO.C,D7*%
X174783750Y-150762500D03*
D14*
X176943750Y-150762500D03*
X180243750Y-150762500D03*
D15*
X182403750Y-150762500D03*
%TD*%
D10*
%TO.C,S32*%
X173513750Y-104762500D03*
X183673750Y-104762500D03*
D11*
X178593750Y-104762500D03*
D12*
X176053750Y-99682500D03*
X181133750Y-99682500D03*
X182403750Y-102222500D03*
X174783750Y-102222500D03*
%TD*%
D13*
%TO.C,D14*%
X212783750Y-132762500D03*
D14*
X214943750Y-132762500D03*
D15*
X220403750Y-132762500D03*
D14*
X218243750Y-132762500D03*
%TD*%
D11*
%TO.C,S25*%
X140593750Y-138287500D03*
D10*
X135513750Y-138287500D03*
X145673750Y-138287500D03*
D12*
X143133750Y-133207500D03*
X138053750Y-133207500D03*
X136783750Y-135747500D03*
X144403750Y-135747500D03*
%TD*%
D10*
%TO.C,S33*%
X192513750Y-137762500D03*
D11*
X197593750Y-137762500D03*
D10*
X202673750Y-137762500D03*
D12*
X200133750Y-132682500D03*
X195053750Y-132682500D03*
X201403750Y-135222500D03*
X193783750Y-135222500D03*
%TD*%
D13*
%TO.C,D9*%
X174783750Y-112762500D03*
D14*
X176943750Y-112762500D03*
X180243750Y-112762500D03*
D15*
X182403750Y-112762500D03*
%TD*%
D10*
%TO.C,S46*%
X275331380Y-195619420D03*
X268147176Y-188435216D03*
D11*
X271739278Y-192027318D03*
D12*
X277127432Y-190231267D03*
X273535329Y-186639164D03*
X270841252Y-187537190D03*
X276229406Y-192925344D03*
%TD*%
D16*
%TO.C,*%
X265906250Y-181768750D03*
%TD*%
D13*
%TO.C,D20*%
X208158750Y-172762500D03*
D14*
X210318750Y-172762500D03*
X213618750Y-172762500D03*
D15*
X215778750Y-172762500D03*
%TD*%
D11*
%TO.C,S39*%
X235593750Y-145762500D03*
D10*
X230513750Y-145762500D03*
X240673750Y-145762500D03*
D12*
X233053750Y-140682500D03*
X238133750Y-140682500D03*
X231783750Y-143222500D03*
X239403750Y-143222500D03*
%TD*%
D22*
%TO.C,*%
X247650000Y-95356757D03*
%TD*%
D11*
%TO.C,S35*%
X197593750Y-99762500D03*
D10*
X202673750Y-99762500D03*
X192513750Y-99762500D03*
D12*
X200133750Y-94682500D03*
X195053750Y-94682500D03*
X193783750Y-97222500D03*
X201403750Y-97222500D03*
%TD*%
D23*
%TO.C, *%
X257175000Y-148675000D03*
X257175000Y-149975000D03*
%TD*%
D10*
%TO.C,S28*%
X154513750Y-128762500D03*
X164673750Y-128762500D03*
D11*
X159593750Y-128762500D03*
D12*
X162133750Y-123682500D03*
X157053750Y-123682500D03*
X155783750Y-126222500D03*
X163403750Y-126222500D03*
%TD*%
D22*
%TO.C,*%
X249237500Y-153193750D03*
%TD*%
D23*
%TO.C, *%
X260350000Y-148575000D03*
X260350000Y-149875000D03*
%TD*%
D16*
%TO.C,*%
X131093750Y-128787500D03*
%TD*%
D10*
%TO.C,S42*%
X193048750Y-164762500D03*
X182888750Y-164762500D03*
D11*
X187968750Y-164762500D03*
D24*
X185428750Y-159682500D03*
X190508750Y-159682500D03*
D18*
X191778750Y-162222500D03*
X184158750Y-162222500D03*
%TD*%
D22*
%TO.C,*%
X266700000Y-153193750D03*
%TD*%
D11*
%TO.C,S43*%
X211968750Y-164762500D03*
D10*
X217048750Y-164762500D03*
X206888750Y-164762500D03*
D12*
X209428750Y-159682500D03*
X214508750Y-159682500D03*
X208158750Y-162222500D03*
X215778750Y-162222500D03*
%TD*%
D16*
%TO.C,*%
X226218750Y-116681250D03*
%TD*%
D25*
%TO.C,SSD1306*%
X262682500Y-152400000D03*
X260142500Y-152400000D03*
X257602500Y-152400000D03*
X255062500Y-152400000D03*
%TD*%
D16*
%TO.C,*%
X178593750Y-154781250D03*
%TD*%
D11*
%TO.C,S37*%
X216593750Y-124762500D03*
D10*
X221673750Y-124762500D03*
X211513750Y-124762500D03*
D12*
X214053750Y-119682500D03*
X219133750Y-119682500D03*
X212783750Y-122222500D03*
X220403750Y-122222500D03*
%TD*%
D14*
%TO.C,D11*%
X195943750Y-126762500D03*
D13*
X193783750Y-126762500D03*
D15*
X201403750Y-126762500D03*
D14*
X199243750Y-126762500D03*
%TD*%
D13*
%TO.C,D18*%
X231783750Y-115762500D03*
D14*
X233943750Y-115762500D03*
X237243750Y-115762500D03*
D15*
X239403750Y-115762500D03*
%TD*%
D26*
%TO.C,D23*%
X263632947Y-195370447D03*
D27*
X265160298Y-196897798D03*
X267493750Y-199231250D03*
D15*
X269021101Y-200758601D03*
%TD*%
D10*
%TO.C,S27*%
X154513750Y-147762500D03*
D11*
X159593750Y-147762500D03*
D10*
X164673750Y-147762500D03*
D12*
X162133750Y-142682500D03*
X157053750Y-142682500D03*
X155783750Y-145222500D03*
X163403750Y-145222500D03*
%TD*%
D13*
%TO.C,D1*%
X118411591Y-136755708D03*
D14*
X120571591Y-136755708D03*
X123871591Y-136755708D03*
D15*
X126031591Y-136755708D03*
%TD*%
D16*
%TO.C,*%
X224631250Y-157956250D03*
%TD*%
D10*
%TO.C,S41*%
X240673750Y-107762500D03*
D11*
X235593750Y-107762500D03*
D10*
X230513750Y-107762500D03*
D12*
X238133750Y-102682500D03*
X233053750Y-102682500D03*
X231783750Y-105222500D03*
X239403750Y-105222500D03*
%TD*%
D13*
%TO.C,D12*%
X193783750Y-107762500D03*
D14*
X195943750Y-107762500D03*
D15*
X201403750Y-107762500D03*
D14*
X199243750Y-107762500D03*
%TD*%
%TO.C,D15*%
X214943750Y-113762500D03*
D13*
X212783750Y-113762500D03*
D15*
X220403750Y-113762500D03*
D14*
X218243750Y-113762500D03*
%TD*%
D10*
%TO.C,S31*%
X183673750Y-123762500D03*
D11*
X178593750Y-123762500D03*
D10*
X173513750Y-123762500D03*
D12*
X181133750Y-118682500D03*
X176053750Y-118682500D03*
X182403750Y-121222500D03*
X174783750Y-121222500D03*
%TD*%
D14*
%TO.C,D13*%
X214943750Y-151762500D03*
D13*
X212783750Y-151762500D03*
D15*
X220403750Y-151762500D03*
D14*
X218243750Y-151762500D03*
%TD*%
D28*
%TO.C,this side up*%
X249078750Y-99695000D03*
X249078750Y-102235000D03*
D29*
X249078750Y-104775000D03*
D28*
X249078750Y-107315000D03*
D30*
X249078750Y-109855000D03*
D28*
X249078750Y-112395000D03*
D29*
X249078750Y-117475000D03*
X249078750Y-120015000D03*
X249078750Y-122555000D03*
X249078750Y-125095000D03*
X249078750Y-127635000D03*
X249078750Y-130175000D03*
D31*
X249078750Y-132715000D03*
X249078750Y-135255000D03*
X249078750Y-137795000D03*
X249078750Y-140335000D03*
D32*
X249078750Y-142875000D03*
D31*
X249078750Y-145415000D03*
X249078750Y-147955000D03*
X266858750Y-147955000D03*
X266858750Y-145415000D03*
D32*
X266858750Y-142875000D03*
D31*
X266858750Y-140335000D03*
X266858750Y-137795000D03*
X266858750Y-135255000D03*
X266858750Y-132715000D03*
D29*
X266858750Y-130175000D03*
D30*
X266858750Y-127635000D03*
D29*
X266858750Y-125095000D03*
X266858750Y-122555000D03*
X266858750Y-120015000D03*
D32*
X266858750Y-117475000D03*
D31*
X266858750Y-114935000D03*
X266858750Y-112395000D03*
D29*
X266858750Y-109855000D03*
X266858750Y-107315000D03*
X266858750Y-104775000D03*
X266858750Y-102235000D03*
X266858750Y-99695000D03*
D28*
X249078750Y-114935000D03*
%TD*%
D16*
%TO.C,*%
X168275000Y-138262500D03*
%TD*%
D10*
%TO.C,S36*%
X221673750Y-143762500D03*
D11*
X216593750Y-143762500D03*
D10*
X211513750Y-143762500D03*
D12*
X219133750Y-138682500D03*
X214053750Y-138682500D03*
X220403750Y-141222500D03*
X212783750Y-141222500D03*
%TD*%
D33*
%TO.C,D22*%
X247361611Y-183164070D03*
D34*
X249232226Y-184244070D03*
X252090110Y-185894070D03*
D15*
X253960725Y-186974070D03*
%TD*%
D14*
%TO.C,D19*%
X186218750Y-153987500D03*
D13*
X184058750Y-153987500D03*
D15*
X191678750Y-153987500D03*
D14*
X189518750Y-153987500D03*
%TD*%
%TO.C,D3*%
X139571591Y-127455708D03*
D13*
X137411591Y-127455708D03*
D15*
X145031591Y-127455708D03*
D14*
X142871591Y-127455708D03*
%TD*%
D10*
%TO.C,S45*%
X250390535Y-175182872D03*
X259189353Y-180262872D03*
D11*
X254789944Y-177722872D03*
D12*
X259529649Y-174593463D03*
X255130239Y-172053463D03*
X259359501Y-177428167D03*
X252760387Y-173618167D03*
%TD*%
D23*
%TO.C, *%
X254793750Y-148675000D03*
X254793750Y-149975000D03*
%TD*%
D11*
%TO.C,S34*%
X197593750Y-118762500D03*
D10*
X192513750Y-118762500D03*
X202673750Y-118762500D03*
D12*
X200133750Y-113682500D03*
X195053750Y-113682500D03*
X201403750Y-116222500D03*
X193783750Y-116222500D03*
%TD*%
D23*
%TO.C, *%
X262731250Y-148575000D03*
X262731250Y-149875000D03*
%TD*%
D10*
%TO.C,S44*%
X230061847Y-166447699D03*
X239875653Y-169077301D03*
D11*
X234968750Y-167762500D03*
D12*
X238737002Y-163512997D03*
X233830099Y-162198196D03*
X239306328Y-166295149D03*
X231945973Y-164322948D03*
%TD*%
D10*
%TO.C,S29*%
X154513750Y-109762500D03*
X164673750Y-109762500D03*
D11*
X159593750Y-109762500D03*
D12*
X162133750Y-104682500D03*
X157053750Y-104682500D03*
X163403750Y-107222500D03*
X155783750Y-107222500D03*
%TD*%
D35*
%TO.C,D21*%
X231530677Y-175112109D03*
D36*
X229444278Y-174553059D03*
D15*
X236804632Y-176525261D03*
D35*
X234718233Y-175966211D03*
%TD*%
D13*
%TO.C,D2*%
X137411591Y-146455708D03*
D14*
X139571591Y-146455708D03*
X142871591Y-146455708D03*
D15*
X145031591Y-146455708D03*
%TD*%
D16*
%TO.C,*%
X226093750Y-134937500D03*
%TD*%
D10*
%TO.C,S24*%
X116513750Y-128587500D03*
D11*
X121593750Y-128587500D03*
D10*
X126673750Y-128587500D03*
D12*
X124133750Y-123507500D03*
X119053750Y-123507500D03*
X117783750Y-126047500D03*
X125403750Y-126047500D03*
%TD*%
D29*
%TO.C,MCU1*%
X265588750Y-100965000D03*
X265588750Y-103505000D03*
X265588750Y-106045000D03*
X265588750Y-108585000D03*
X265588750Y-111125000D03*
X265588750Y-113665000D03*
X265588750Y-116205000D03*
X265588750Y-118745000D03*
X265588750Y-121285000D03*
X265588750Y-123825000D03*
X265588750Y-126365000D03*
X265588750Y-128905000D03*
X250348750Y-100965000D03*
X250348750Y-103505000D03*
X250348750Y-106045000D03*
X250348750Y-108585000D03*
X250348750Y-111125000D03*
X250348750Y-113665000D03*
X250348750Y-116205000D03*
X250348750Y-118745000D03*
X250348750Y-121285000D03*
X250348750Y-123825000D03*
X250348750Y-126365000D03*
X250348750Y-128905000D03*
%TD*%
M02*
