%TF.GenerationSoftware,KiCad,Pcbnew,(6.0.10)*%
%TF.CreationDate,2023-04-21T21:44:23+03:00*%
%TF.ProjectId,blaster_bottom,626c6173-7465-4725-9f62-6f74746f6d2e,v1.0.0*%
%TF.SameCoordinates,Original*%
%TF.FileFunction,Legend,Bot*%
%TF.FilePolarity,Positive*%
%FSLAX46Y46*%
G04 Gerber Fmt 4.6, Leading zero omitted, Abs format (unit mm)*
G04 Created by KiCad (PCBNEW (6.0.10)) date 2023-04-21 21:44:23*
%MOMM*%
%LPD*%
G01*
G04 APERTURE LIST*
%ADD10C,0.300000*%
G04 APERTURE END LIST*
D10*
%TO.C, *%
G36*
X203441417Y-125489314D02*
G01*
X202329436Y-125489314D01*
X202329436Y-124377333D01*
X203441417Y-124377333D01*
X203441417Y-125489314D01*
G37*
G36*
X204553399Y-143281019D02*
G01*
X204553399Y-142169038D01*
X205665381Y-142169038D01*
X211225288Y-142169038D01*
X211225288Y-136609130D01*
X205665381Y-136609130D01*
X205665381Y-142169038D01*
X204553399Y-142169038D01*
X204553399Y-135497148D01*
X212337270Y-135497148D01*
X212337270Y-143281019D01*
X204553399Y-143281019D01*
G37*
G36*
X198993491Y-137721111D02*
G01*
X197881510Y-137721111D01*
X197881510Y-136609130D01*
X198993491Y-136609130D01*
X198993491Y-137721111D01*
G37*
G36*
X210113307Y-121041388D02*
G01*
X206777362Y-121041388D01*
X206777362Y-117705443D01*
X210113307Y-117705443D01*
X210113307Y-121041388D01*
G37*
G36*
X207889344Y-126601296D02*
G01*
X211225288Y-126601296D01*
X211225288Y-128825259D01*
X210113307Y-128825259D01*
X210113307Y-129937240D01*
X209001325Y-129937240D01*
X209001325Y-128825259D01*
X206777362Y-128825259D01*
X206777362Y-125489314D01*
X207889344Y-125489314D01*
X207889344Y-126601296D01*
G37*
G36*
X196769528Y-123265351D02*
G01*
X195657546Y-123265351D01*
X195657546Y-122153369D01*
X196769528Y-122153369D01*
X196769528Y-123265351D01*
G37*
G36*
X204553399Y-126601296D02*
G01*
X205665381Y-126601296D01*
X205665381Y-127713277D01*
X204553399Y-127713277D01*
X204553399Y-128825259D01*
X203441417Y-128825259D01*
X203441417Y-125489314D01*
X204553399Y-125489314D01*
X204553399Y-126601296D01*
G37*
G36*
X210113307Y-141057056D02*
G01*
X206777362Y-141057056D01*
X206777362Y-137721111D01*
X210113307Y-137721111D01*
X210113307Y-141057056D01*
G37*
G36*
X197881510Y-135497148D02*
G01*
X197881510Y-136609130D01*
X195657546Y-136609130D01*
X195657546Y-134385167D01*
X194545565Y-134385167D01*
X194545565Y-138833093D01*
X193433583Y-138833093D01*
X193433583Y-139945075D01*
X192321602Y-139945075D01*
X192321602Y-141057056D01*
X193433583Y-141057056D01*
X193433583Y-142169038D01*
X192321602Y-142169038D01*
X192321602Y-141057056D01*
X191209620Y-141057056D01*
X191209620Y-138833093D01*
X190097639Y-138833093D01*
X190097639Y-142169038D01*
X192321602Y-142169038D01*
X192321602Y-143281019D01*
X184537731Y-143281019D01*
X184537731Y-142169038D01*
X186761694Y-142169038D01*
X187873675Y-142169038D01*
X188985657Y-142169038D01*
X188985657Y-139945075D01*
X187873675Y-139945075D01*
X187873675Y-142169038D01*
X186761694Y-142169038D01*
X186761694Y-141057056D01*
X185649712Y-141057056D01*
X185649712Y-139945075D01*
X184537731Y-139945075D01*
X184537731Y-138833093D01*
X186761694Y-138833093D01*
X187873675Y-138833093D01*
X187873675Y-137721111D01*
X193433583Y-137721111D01*
X193433583Y-134385167D01*
X190097639Y-134385167D01*
X190097639Y-137721111D01*
X188985657Y-137721111D01*
X188985657Y-134385167D01*
X187873675Y-134385167D01*
X187873675Y-136609130D01*
X186761694Y-136609130D01*
X186761694Y-138833093D01*
X184537731Y-138833093D01*
X184537731Y-137721111D01*
X185649712Y-137721111D01*
X185649712Y-136609130D01*
X184537731Y-136609130D01*
X184537731Y-135497148D01*
X185649712Y-135497148D01*
X186761694Y-135497148D01*
X186761694Y-134385167D01*
X185649712Y-134385167D01*
X185649712Y-135497148D01*
X184537731Y-135497148D01*
X184537731Y-133273185D01*
X185649712Y-133273185D01*
X188985657Y-133273185D01*
X194545565Y-133273185D01*
X195657546Y-133273185D01*
X195657546Y-134385167D01*
X196769528Y-134385167D01*
X196769528Y-133273185D01*
X197881510Y-133273185D01*
X197881510Y-132161204D01*
X195657546Y-132161204D01*
X195657546Y-131049222D01*
X194545565Y-131049222D01*
X194545565Y-133273185D01*
X188985657Y-133273185D01*
X188985657Y-132161204D01*
X190097639Y-132161204D01*
X192321602Y-132161204D01*
X192321602Y-131049222D01*
X193433583Y-131049222D01*
X193433583Y-129937240D01*
X194545565Y-129937240D01*
X194545565Y-128825259D01*
X193433583Y-128825259D01*
X193433583Y-129937240D01*
X192321602Y-129937240D01*
X192321602Y-131049222D01*
X190097639Y-131049222D01*
X190097639Y-132161204D01*
X188985657Y-132161204D01*
X188985657Y-128825259D01*
X187873675Y-128825259D01*
X187873675Y-129937240D01*
X185649712Y-129937240D01*
X185649712Y-131049222D01*
X187873675Y-131049222D01*
X187873675Y-132161204D01*
X185649712Y-132161204D01*
X185649712Y-133273185D01*
X184537731Y-133273185D01*
X184537731Y-132161204D01*
X185649712Y-132161204D01*
X185649712Y-131049222D01*
X184537731Y-131049222D01*
X184537731Y-128825259D01*
X186761694Y-128825259D01*
X186761694Y-127713277D01*
X188985657Y-127713277D01*
X188985657Y-126601296D01*
X190097639Y-126601296D01*
X190097639Y-125489314D01*
X191209620Y-125489314D01*
X191209620Y-126601296D01*
X192321602Y-126601296D01*
X192321602Y-127713277D01*
X196769528Y-127713277D01*
X196769528Y-126601296D01*
X200105473Y-126601296D01*
X200105473Y-128825259D01*
X198993491Y-128825259D01*
X198993491Y-127713277D01*
X197881510Y-127713277D01*
X197881510Y-128825259D01*
X198993491Y-128825259D01*
X198993491Y-131049222D01*
X197881510Y-131049222D01*
X197881510Y-129937240D01*
X196769528Y-129937240D01*
X196769528Y-128825259D01*
X195657546Y-128825259D01*
X195657546Y-131049222D01*
X197881510Y-131049222D01*
X197881510Y-132161204D01*
X198993491Y-132161204D01*
X198993491Y-135497148D01*
X197881510Y-135497148D01*
G37*
G36*
X203441417Y-116593462D02*
G01*
X201217454Y-116593462D01*
X201217454Y-115481480D01*
X203441417Y-115481480D01*
X203441417Y-116593462D01*
G37*
G36*
X184537731Y-123265351D02*
G01*
X184537731Y-122153369D01*
X185649712Y-122153369D01*
X191209620Y-122153369D01*
X191209620Y-116593462D01*
X185649712Y-116593462D01*
X185649712Y-122153369D01*
X184537731Y-122153369D01*
X184537731Y-115481480D01*
X192321602Y-115481480D01*
X192321602Y-123265351D01*
X184537731Y-123265351D01*
G37*
G36*
X195657546Y-121041388D02*
G01*
X194545565Y-121041388D01*
X194545565Y-119929406D01*
X195657546Y-119929406D01*
X195657546Y-121041388D01*
G37*
G36*
X195657546Y-118817425D02*
G01*
X194545565Y-118817425D01*
X194545565Y-117705443D01*
X195657546Y-117705443D01*
X195657546Y-118817425D01*
G37*
G36*
X190097639Y-121041388D02*
G01*
X186761694Y-121041388D01*
X186761694Y-117705443D01*
X190097639Y-117705443D01*
X190097639Y-121041388D01*
G37*
G36*
X192321602Y-136609130D02*
G01*
X191209620Y-136609130D01*
X191209620Y-135497148D01*
X192321602Y-135497148D01*
X192321602Y-136609130D01*
G37*
G36*
X194545565Y-117705443D02*
G01*
X193433583Y-117705443D01*
X193433583Y-115481480D01*
X194545565Y-115481480D01*
X194545565Y-117705443D01*
G37*
G36*
X198993491Y-125489314D02*
G01*
X197881510Y-125489314D01*
X197881510Y-124377333D01*
X198993491Y-124377333D01*
X198993491Y-125489314D01*
G37*
G36*
X209001325Y-132161204D02*
G01*
X210113307Y-132161204D01*
X210113307Y-133273185D01*
X209001325Y-133273185D01*
X209001325Y-134385167D01*
X204553399Y-134385167D01*
X204553399Y-133273185D01*
X206777362Y-133273185D01*
X206777362Y-132161204D01*
X207889344Y-132161204D01*
X207889344Y-131049222D01*
X209001325Y-131049222D01*
X209001325Y-132161204D01*
G37*
G36*
X205665381Y-132161204D02*
G01*
X203441417Y-132161204D01*
X203441417Y-131049222D01*
X205665381Y-131049222D01*
X205665381Y-132161204D01*
G37*
G36*
X194545565Y-126601296D02*
G01*
X193433583Y-126601296D01*
X193433583Y-125489314D01*
X192321602Y-125489314D01*
X192321602Y-124377333D01*
X193433583Y-124377333D01*
X193433583Y-122153369D01*
X194545565Y-122153369D01*
X194545565Y-126601296D01*
G37*
G36*
X196769528Y-119929406D02*
G01*
X195657546Y-119929406D01*
X195657546Y-118817425D01*
X196769528Y-118817425D01*
X196769528Y-119929406D01*
G37*
G36*
X206777362Y-129937240D02*
G01*
X207889344Y-129937240D01*
X207889344Y-131049222D01*
X205665381Y-131049222D01*
X205665381Y-129937240D01*
X204553399Y-129937240D01*
X204553399Y-128825259D01*
X206777362Y-128825259D01*
X206777362Y-129937240D01*
G37*
G36*
X196769528Y-126601296D02*
G01*
X195657546Y-126601296D01*
X195657546Y-124377333D01*
X196769528Y-124377333D01*
X196769528Y-126601296D01*
G37*
G36*
X202329436Y-123265351D02*
G01*
X202329436Y-124377333D01*
X201217454Y-124377333D01*
X201217454Y-123265351D01*
X202329436Y-123265351D01*
G37*
G36*
X200105473Y-123265351D02*
G01*
X200105473Y-124377333D01*
X198993491Y-124377333D01*
X198993491Y-123265351D01*
X200105473Y-123265351D01*
X200105473Y-122153369D01*
X201217454Y-122153369D01*
X201217454Y-121041388D01*
X198993491Y-121041388D01*
X198993491Y-123265351D01*
X197881510Y-123265351D01*
X197881510Y-122153369D01*
X196769528Y-122153369D01*
X196769528Y-121041388D01*
X198993491Y-121041388D01*
X198993491Y-119929406D01*
X197881510Y-119929406D01*
X197881510Y-118817425D01*
X196769528Y-118817425D01*
X196769528Y-117705443D01*
X200105473Y-117705443D01*
X200105473Y-119929406D01*
X201217454Y-119929406D01*
X201217454Y-118817425D01*
X202329436Y-118817425D01*
X202329436Y-117705443D01*
X203441417Y-117705443D01*
X203441417Y-121041388D01*
X202329436Y-121041388D01*
X202329436Y-122153369D01*
X203441417Y-122153369D01*
X203441417Y-123265351D01*
X202329436Y-123265351D01*
X202329436Y-122153369D01*
X201217454Y-122153369D01*
X201217454Y-123265351D01*
X200105473Y-123265351D01*
G37*
G36*
X202329436Y-126601296D02*
G01*
X201217454Y-126601296D01*
X201217454Y-125489314D01*
X202329436Y-125489314D01*
X202329436Y-126601296D01*
G37*
G36*
X212337270Y-125489314D02*
G01*
X207889344Y-125489314D01*
X207889344Y-124377333D01*
X212337270Y-124377333D01*
X212337270Y-125489314D01*
G37*
G36*
X203441417Y-133273185D02*
G01*
X202329436Y-133273185D01*
X202329436Y-134385167D01*
X203441417Y-134385167D01*
X203441417Y-135497148D01*
X201217454Y-135497148D01*
X201217454Y-132161204D01*
X203441417Y-132161204D01*
X203441417Y-133273185D01*
G37*
G36*
X185649712Y-125489314D02*
G01*
X184537731Y-125489314D01*
X184537731Y-124377333D01*
X185649712Y-124377333D01*
X185649712Y-125489314D01*
G37*
G36*
X204553399Y-123265351D02*
G01*
X204553399Y-122153369D01*
X205665381Y-122153369D01*
X211225288Y-122153369D01*
X211225288Y-116593462D01*
X205665381Y-116593462D01*
X205665381Y-122153369D01*
X204553399Y-122153369D01*
X204553399Y-115481480D01*
X212337270Y-115481480D01*
X212337270Y-123265351D01*
X204553399Y-123265351D01*
G37*
G36*
X211225288Y-132161204D02*
G01*
X210113307Y-132161204D01*
X210113307Y-131049222D01*
X211225288Y-131049222D01*
X211225288Y-132161204D01*
G37*
G36*
X200105473Y-143281019D02*
G01*
X200105473Y-142169038D01*
X202329436Y-142169038D01*
X202329436Y-139945075D01*
X201217454Y-139945075D01*
X201217454Y-138833093D01*
X200105473Y-138833093D01*
X200105473Y-142169038D01*
X196769528Y-142169038D01*
X196769528Y-143281019D01*
X195657546Y-143281019D01*
X195657546Y-142169038D01*
X194545565Y-142169038D01*
X194545565Y-141057056D01*
X196769528Y-141057056D01*
X197881510Y-141057056D01*
X197881510Y-139945075D01*
X196769528Y-139945075D01*
X196769528Y-141057056D01*
X194545565Y-141057056D01*
X194545565Y-139945075D01*
X195657546Y-139945075D01*
X195657546Y-138833093D01*
X197881510Y-138833093D01*
X197881510Y-139945075D01*
X198993491Y-139945075D01*
X198993491Y-138833093D01*
X200105473Y-138833093D01*
X200105473Y-136609130D01*
X201217454Y-136609130D01*
X201217454Y-137721111D01*
X202329436Y-137721111D01*
X202329436Y-138833093D01*
X203441417Y-138833093D01*
X203441417Y-143281019D01*
X200105473Y-143281019D01*
G37*
G36*
X212337270Y-133273185D02*
G01*
X211225288Y-133273185D01*
X211225288Y-132161204D01*
X212337270Y-132161204D01*
X212337270Y-133273185D01*
G37*
G36*
X205665381Y-125489314D02*
G01*
X204553399Y-125489314D01*
X204553399Y-124377333D01*
X205665381Y-124377333D01*
X205665381Y-125489314D01*
G37*
G36*
X186761694Y-126601296D02*
G01*
X185649712Y-126601296D01*
X185649712Y-125489314D01*
X186761694Y-125489314D01*
X186761694Y-126601296D01*
G37*
G36*
X202329436Y-129937240D02*
G01*
X203441417Y-129937240D01*
X203441417Y-131049222D01*
X200105473Y-131049222D01*
X200105473Y-129937240D01*
X201217454Y-129937240D01*
X201217454Y-128825259D01*
X202329436Y-128825259D01*
X202329436Y-129937240D01*
G37*
G36*
X190097639Y-125489314D02*
G01*
X186761694Y-125489314D01*
X186761694Y-124377333D01*
X190097639Y-124377333D01*
X190097639Y-125489314D01*
G37*
%TD*%
M02*
