%TF.GenerationSoftware,KiCad,Pcbnew,(6.0.10)*%
%TF.CreationDate,2023-04-21T21:44:23+03:00*%
%TF.ProjectId,blaster_bottom,626c6173-7465-4725-9f62-6f74746f6d2e,v1.0.0*%
%TF.SameCoordinates,Original*%
%TF.FileFunction,Copper,L2,Bot*%
%TF.FilePolarity,Positive*%
%FSLAX46Y46*%
G04 Gerber Fmt 4.6, Leading zero omitted, Abs format (unit mm)*
G04 Created by KiCad (PCBNEW (6.0.10)) date 2023-04-21 21:44:23*
%MOMM*%
%LPD*%
G01*
G04 APERTURE LIST*
%TA.AperFunction,ComponentPad*%
%ADD10C,4.000000*%
%TD*%
G04 APERTURE END LIST*
D10*
%TO.P,, *%
%TO.N,N/C*%
X207093750Y-109262500D03*
%TD*%
%TO.P,, *%
%TO.N,N/C*%
X169093750Y-114262500D03*
%TD*%
%TO.P,, *%
%TO.N,N/C*%
X265906250Y-181768750D03*
%TD*%
%TO.P,, *%
%TO.N,N/C*%
X131093750Y-128787500D03*
%TD*%
%TO.P,, *%
%TO.N,N/C*%
X226218750Y-116681250D03*
%TD*%
%TO.P,, *%
%TO.N,N/C*%
X178593750Y-154781250D03*
%TD*%
%TO.P,, *%
%TO.N,GND*%
X224631250Y-157956250D03*
%TD*%
%TO.P,, *%
%TO.N,N/C*%
X168275000Y-138262500D03*
%TD*%
%TO.P,, *%
%TO.N,N/C*%
X226093750Y-134937500D03*
%TD*%
%TA.AperFunction,Conductor*%
%TO.N,GND*%
G36*
X205551265Y-90203751D02*
G01*
X205564319Y-90205784D01*
X205574958Y-90207441D01*
X205587635Y-90205784D01*
X205614948Y-90205201D01*
X205628169Y-90206358D01*
X205757620Y-90217687D01*
X205779248Y-90221501D01*
X205939625Y-90264477D01*
X205960264Y-90271989D01*
X206110746Y-90342163D01*
X206129765Y-90353144D01*
X206265776Y-90448381D01*
X206282600Y-90462499D01*
X206400001Y-90579900D01*
X206414119Y-90596724D01*
X206509356Y-90732735D01*
X206520337Y-90751754D01*
X206590511Y-90902236D01*
X206598023Y-90922875D01*
X206640999Y-91083252D01*
X206644813Y-91104880D01*
X206656696Y-91240657D01*
X206656142Y-91257140D01*
X206656549Y-91257145D01*
X206656440Y-91266120D01*
X206655059Y-91274990D01*
X206656223Y-91283890D01*
X206656223Y-91283892D01*
X206659186Y-91306544D01*
X206660250Y-91322885D01*
X206660250Y-94403016D01*
X206658504Y-94423917D01*
X206655174Y-94443714D01*
X206655021Y-94456266D01*
X206655710Y-94461077D01*
X206655722Y-94461258D01*
X206656688Y-94470521D01*
X206673731Y-94730431D01*
X206727339Y-94999904D01*
X206728665Y-95003809D01*
X206728666Y-95003814D01*
X206778464Y-95150505D01*
X206815660Y-95260075D01*
X206864795Y-95359707D01*
X206925811Y-95483431D01*
X206937184Y-95506493D01*
X206939472Y-95509917D01*
X206939473Y-95509919D01*
X206998522Y-95598290D01*
X207089831Y-95734941D01*
X207092543Y-95738033D01*
X207092548Y-95738040D01*
X207233155Y-95898370D01*
X207270989Y-95941511D01*
X207274078Y-95944220D01*
X207474460Y-96119952D01*
X207474467Y-96119957D01*
X207477559Y-96122669D01*
X207706007Y-96275316D01*
X207709703Y-96277139D01*
X207709707Y-96277141D01*
X207814864Y-96329000D01*
X207952425Y-96396840D01*
X207956331Y-96398166D01*
X208208686Y-96483834D01*
X208208691Y-96483835D01*
X208212596Y-96485161D01*
X208216650Y-96485968D01*
X208216652Y-96485968D01*
X208458971Y-96534174D01*
X208482069Y-96538769D01*
X208486180Y-96539039D01*
X208486183Y-96539039D01*
X208626026Y-96548209D01*
X208723661Y-96554611D01*
X208736322Y-96556088D01*
X208738095Y-96556386D01*
X208743682Y-96557326D01*
X208749667Y-96557399D01*
X208751367Y-96557420D01*
X208751371Y-96557420D01*
X208756234Y-96557479D01*
X208761052Y-96556789D01*
X208761055Y-96556789D01*
X208783872Y-96553522D01*
X208801730Y-96552250D01*
X225375633Y-96552250D01*
X225395018Y-96553750D01*
X225409851Y-96556060D01*
X225409855Y-96556060D01*
X225418724Y-96557441D01*
X225427629Y-96556277D01*
X225436598Y-96556386D01*
X225436588Y-96557200D01*
X225458098Y-96557493D01*
X225493434Y-96563089D01*
X225530927Y-96575270D01*
X225574887Y-96597669D01*
X225606779Y-96620841D01*
X225641659Y-96655721D01*
X225664831Y-96687614D01*
X225687229Y-96731573D01*
X225699410Y-96769062D01*
X225704869Y-96803525D01*
X225706301Y-96823250D01*
X225705059Y-96831224D01*
X225708894Y-96860550D01*
X225709955Y-96877643D01*
X225709774Y-96907221D01*
X225712240Y-96915849D01*
X225716828Y-96931900D01*
X225720616Y-96950192D01*
X225723945Y-96975652D01*
X225727558Y-96983864D01*
X225727559Y-96983866D01*
X225735858Y-97002726D01*
X225741675Y-97018838D01*
X225749801Y-97047271D01*
X225763505Y-97068989D01*
X225772267Y-97085471D01*
X225782609Y-97108974D01*
X225788384Y-97115844D01*
X225801636Y-97131609D01*
X225811747Y-97145450D01*
X225816080Y-97152317D01*
X225827526Y-97170458D01*
X225834254Y-97176400D01*
X225846769Y-97187453D01*
X225859807Y-97200813D01*
X225876333Y-97220473D01*
X225883800Y-97225444D01*
X225883805Y-97225448D01*
X225900957Y-97236865D01*
X225914536Y-97247303D01*
X225936701Y-97266878D01*
X225944827Y-97270693D01*
X225944830Y-97270695D01*
X225959939Y-97277788D01*
X225976203Y-97286951D01*
X225997584Y-97301184D01*
X226025821Y-97310006D01*
X226041776Y-97316211D01*
X226068550Y-97328781D01*
X226088286Y-97331854D01*
X226093918Y-97332731D01*
X226112102Y-97336963D01*
X226136614Y-97344621D01*
X226167334Y-97345184D01*
X226171655Y-97345263D01*
X226175624Y-97345453D01*
X226179136Y-97346000D01*
X226210696Y-97346000D01*
X226213005Y-97346021D01*
X226273275Y-97347126D01*
X226273278Y-97347126D01*
X226282248Y-97347290D01*
X226286053Y-97346253D01*
X226290128Y-97346000D01*
X246027529Y-97346000D01*
X246041229Y-97346747D01*
X246079597Y-97350944D01*
X246088432Y-97349377D01*
X246088435Y-97349377D01*
X246140888Y-97340074D01*
X246145029Y-97339411D01*
X246197799Y-97331854D01*
X246197807Y-97331852D01*
X246206687Y-97330580D01*
X246214533Y-97327013D01*
X246223017Y-97325508D01*
X246231060Y-97321523D01*
X246231063Y-97321522D01*
X246278829Y-97297856D01*
X246282614Y-97296058D01*
X246331112Y-97274007D01*
X246331113Y-97274006D01*
X246339282Y-97270292D01*
X246345809Y-97264668D01*
X246353533Y-97260841D01*
X246360133Y-97254760D01*
X246360137Y-97254757D01*
X246399338Y-97218638D01*
X246402468Y-97215848D01*
X246442830Y-97181070D01*
X246442831Y-97181068D01*
X246449627Y-97175213D01*
X246454313Y-97167984D01*
X246460653Y-97162142D01*
X246479030Y-97131609D01*
X246492765Y-97108789D01*
X246494988Y-97105232D01*
X246523968Y-97060521D01*
X246523970Y-97060518D01*
X246528852Y-97052985D01*
X246531322Y-97044726D01*
X246535765Y-97037344D01*
X246538824Y-97025722D01*
X246551609Y-96977135D01*
X246552743Y-96973099D01*
X246568017Y-96922026D01*
X246568017Y-96922023D01*
X246570586Y-96913434D01*
X246570639Y-96904817D01*
X246572832Y-96896482D01*
X246571141Y-96834266D01*
X246571096Y-96830074D01*
X246571421Y-96776758D01*
X246571476Y-96767779D01*
X246569107Y-96759491D01*
X246568873Y-96750878D01*
X246549773Y-96691593D01*
X246548554Y-96687579D01*
X246533917Y-96636363D01*
X246533916Y-96636360D01*
X246531449Y-96627729D01*
X246526851Y-96620441D01*
X246524208Y-96612238D01*
X246489212Y-96560661D01*
X246486993Y-96557272D01*
X246453724Y-96504542D01*
X246447265Y-96498837D01*
X246442426Y-96491706D01*
X246435506Y-96485993D01*
X246435504Y-96485991D01*
X246431025Y-96482293D01*
X246412930Y-96463936D01*
X246284682Y-96303951D01*
X246274023Y-96288400D01*
X246158637Y-96089633D01*
X246150418Y-96072666D01*
X246129104Y-96018708D01*
X246065976Y-95858894D01*
X246060385Y-95840902D01*
X246008786Y-95616928D01*
X246005940Y-95598290D01*
X245988339Y-95369129D01*
X245988306Y-95350276D01*
X246005094Y-95121058D01*
X246007874Y-95102411D01*
X246058676Y-94878261D01*
X246064207Y-94860238D01*
X246112667Y-94736271D01*
X246147885Y-94646177D01*
X246156042Y-94629185D01*
X246270729Y-94429999D01*
X246281332Y-94414410D01*
X246424446Y-94234577D01*
X246437256Y-94220745D01*
X246605606Y-94064274D01*
X246620337Y-94052508D01*
X246810149Y-93922908D01*
X246826471Y-93913472D01*
X247033489Y-93813648D01*
X247051036Y-93806752D01*
X247105101Y-93790055D01*
X247270645Y-93738930D01*
X247289016Y-93734732D01*
X247516285Y-93700438D01*
X247535085Y-93699028D01*
X247764915Y-93699028D01*
X247783715Y-93700438D01*
X248010984Y-93734732D01*
X248029355Y-93738930D01*
X248194899Y-93790055D01*
X248248964Y-93806752D01*
X248266511Y-93813648D01*
X248473529Y-93913472D01*
X248489851Y-93922908D01*
X248679663Y-94052508D01*
X248694394Y-94064274D01*
X248862744Y-94220745D01*
X248875554Y-94234577D01*
X249018668Y-94414410D01*
X249029271Y-94429999D01*
X249143958Y-94629185D01*
X249152115Y-94646177D01*
X249187333Y-94736271D01*
X249235793Y-94860238D01*
X249241324Y-94878261D01*
X249292126Y-95102411D01*
X249294906Y-95121058D01*
X249311694Y-95350276D01*
X249311661Y-95369129D01*
X249294060Y-95598290D01*
X249291214Y-95616928D01*
X249239615Y-95840902D01*
X249234024Y-95858894D01*
X249170896Y-96018708D01*
X249149582Y-96072666D01*
X249141363Y-96089633D01*
X249025974Y-96288404D01*
X249015315Y-96303955D01*
X248891495Y-96458416D01*
X248879345Y-96470445D01*
X248879397Y-96470494D01*
X248873196Y-96476982D01*
X248866135Y-96482527D01*
X248860914Y-96489831D01*
X248860403Y-96490366D01*
X248859264Y-96491448D01*
X248858636Y-96492136D01*
X248857665Y-96493364D01*
X248857173Y-96493929D01*
X248850373Y-96499787D01*
X248825628Y-96537964D01*
X248818620Y-96548776D01*
X248815412Y-96553489D01*
X248781433Y-96601024D01*
X248778473Y-96609498D01*
X248778128Y-96610163D01*
X248777344Y-96611512D01*
X248776929Y-96612358D01*
X248776343Y-96613807D01*
X248776031Y-96614481D01*
X248771148Y-96622015D01*
X248754407Y-96677993D01*
X248752658Y-96683391D01*
X248733394Y-96738532D01*
X248732931Y-96747504D01*
X248732790Y-96748221D01*
X248732411Y-96749754D01*
X248732254Y-96750663D01*
X248732097Y-96752226D01*
X248731986Y-96752965D01*
X248729414Y-96761566D01*
X248729359Y-96770543D01*
X248729359Y-96770544D01*
X248729057Y-96819959D01*
X248728891Y-96825689D01*
X248726342Y-96875028D01*
X248725879Y-96883996D01*
X248727951Y-96892732D01*
X248728019Y-96893479D01*
X248728085Y-96895044D01*
X248728190Y-96895964D01*
X248728478Y-96897508D01*
X248728579Y-96898245D01*
X248728524Y-96907221D01*
X248744573Y-96963375D01*
X248746011Y-96968878D01*
X248759494Y-97025722D01*
X248763932Y-97033522D01*
X248764211Y-97034230D01*
X248764714Y-97035715D01*
X248765064Y-97036547D01*
X248765774Y-97037948D01*
X248766084Y-97038641D01*
X248768551Y-97047271D01*
X248787247Y-97076902D01*
X248799696Y-97096633D01*
X248802644Y-97101550D01*
X248827094Y-97144516D01*
X248827097Y-97144519D01*
X248831534Y-97152317D01*
X248837983Y-97158557D01*
X248838449Y-97159158D01*
X248839343Y-97160433D01*
X248839926Y-97161151D01*
X248841001Y-97162297D01*
X248841487Y-97162868D01*
X248846276Y-97170458D01*
X248853004Y-97176400D01*
X248890028Y-97209099D01*
X248894236Y-97212990D01*
X248929757Y-97247361D01*
X248929765Y-97247367D01*
X248936211Y-97253604D01*
X248944152Y-97257783D01*
X248944766Y-97258228D01*
X248945984Y-97259202D01*
X248946749Y-97259730D01*
X248948093Y-97260523D01*
X248948725Y-97260938D01*
X248955451Y-97266878D01*
X248963571Y-97270690D01*
X248963575Y-97270693D01*
X249008305Y-97291693D01*
X249013407Y-97294231D01*
X249065107Y-97321440D01*
X249073905Y-97323223D01*
X249074622Y-97323479D01*
X249076071Y-97324076D01*
X249076932Y-97324361D01*
X249078451Y-97324746D01*
X249079179Y-97324968D01*
X249087300Y-97328781D01*
X249121918Y-97334171D01*
X249144986Y-97337763D01*
X249150630Y-97338774D01*
X249199065Y-97348591D01*
X249199067Y-97348591D01*
X249207863Y-97350374D01*
X249254177Y-97346450D01*
X249264814Y-97346000D01*
X268446750Y-97346000D01*
X268514871Y-97366002D01*
X268561364Y-97419658D01*
X268572750Y-97472000D01*
X268572750Y-154940500D01*
X268552748Y-155008621D01*
X268499092Y-155055114D01*
X268446750Y-155066500D01*
X260403250Y-155066500D01*
X260382345Y-155064754D01*
X260367344Y-155062230D01*
X260367341Y-155062230D01*
X260362552Y-155061424D01*
X260356276Y-155061348D01*
X260354859Y-155061330D01*
X260354856Y-155061330D01*
X260350000Y-155061271D01*
X260345187Y-155061960D01*
X260345009Y-155061972D01*
X260335748Y-155062937D01*
X260253068Y-155068356D01*
X260079942Y-155079703D01*
X260079935Y-155079704D01*
X260075830Y-155079973D01*
X260071797Y-155080775D01*
X260071791Y-155080776D01*
X259810401Y-155132770D01*
X259810395Y-155132772D01*
X259806351Y-155133576D01*
X259802442Y-155134903D01*
X259802438Y-155134904D01*
X259550081Y-155220568D01*
X259546175Y-155221894D01*
X259429532Y-155279416D01*
X259303456Y-155341589D01*
X259303451Y-155341592D01*
X259299752Y-155343416D01*
X259071298Y-155496064D01*
X258864724Y-155677224D01*
X258683564Y-155883798D01*
X258530916Y-156112252D01*
X258529092Y-156115951D01*
X258529089Y-156115956D01*
X258525359Y-156123520D01*
X258409394Y-156358675D01*
X258408068Y-156362580D01*
X258408068Y-156362581D01*
X258330268Y-156591773D01*
X258321076Y-156618851D01*
X258320272Y-156622895D01*
X258320270Y-156622901D01*
X258300537Y-156722108D01*
X258267473Y-156888330D01*
X258267204Y-156892437D01*
X258267203Y-156892443D01*
X258261784Y-156975134D01*
X258253735Y-157097943D01*
X258251086Y-157138357D01*
X258250254Y-157145891D01*
X258250373Y-157146181D01*
X258248809Y-157156224D01*
X258249545Y-157161855D01*
X258249503Y-157162500D01*
X258249630Y-157162500D01*
X258252897Y-157187481D01*
X258252936Y-157187783D01*
X258254000Y-157204120D01*
X258254000Y-159452104D01*
X258248529Y-159488828D01*
X258183087Y-159703612D01*
X258178087Y-159717176D01*
X258074964Y-159954067D01*
X258064176Y-159978848D01*
X258057653Y-159991753D01*
X257914519Y-160238637D01*
X257906561Y-160250710D01*
X257736076Y-160479579D01*
X257726787Y-160490660D01*
X257531210Y-160698482D01*
X257520712Y-160708427D01*
X257302606Y-160892477D01*
X257291038Y-160901153D01*
X257053281Y-161059003D01*
X257040795Y-161066296D01*
X256786527Y-161195861D01*
X256773292Y-161201674D01*
X256692833Y-161231633D01*
X256505846Y-161301257D01*
X256492027Y-161305517D01*
X256214928Y-161373803D01*
X256200714Y-161376451D01*
X256082413Y-161391532D01*
X255917624Y-161412540D01*
X255903213Y-161413542D01*
X255653061Y-161416535D01*
X255626533Y-161414034D01*
X255625906Y-161413907D01*
X255625905Y-161413907D01*
X255617105Y-161412124D01*
X255608160Y-161412882D01*
X255608154Y-161412882D01*
X255592211Y-161414234D01*
X255573267Y-161414411D01*
X255548343Y-161412765D01*
X255543488Y-161413196D01*
X255540693Y-161413444D01*
X255540692Y-161413444D01*
X255535839Y-161413875D01*
X255531111Y-161415047D01*
X255526588Y-161415803D01*
X255524853Y-161416158D01*
X255484699Y-161422661D01*
X255484698Y-161422662D01*
X255476569Y-161423978D01*
X255476568Y-161423978D01*
X255475767Y-161424108D01*
X255475738Y-161423929D01*
X255470453Y-161423618D01*
X255470666Y-161424934D01*
X255223237Y-161465008D01*
X254918866Y-161552609D01*
X254627130Y-161675921D01*
X254352203Y-161833179D01*
X254349182Y-161835425D01*
X254349177Y-161835428D01*
X254101036Y-162019888D01*
X254098015Y-162022134D01*
X254095281Y-162024726D01*
X254095282Y-162024726D01*
X253886253Y-162222967D01*
X253868204Y-162240084D01*
X253666055Y-162483911D01*
X253494462Y-162750127D01*
X253355878Y-163034925D01*
X253252286Y-163334231D01*
X253185166Y-163643764D01*
X253155480Y-163959096D01*
X253163652Y-164275716D01*
X253164197Y-164279438D01*
X253164198Y-164279446D01*
X253206770Y-164570021D01*
X253209565Y-164589097D01*
X253292562Y-164894755D01*
X253293978Y-164898252D01*
X253293979Y-164898254D01*
X253382712Y-165117344D01*
X253411457Y-165188319D01*
X253564548Y-165465589D01*
X253749645Y-165722599D01*
X253964102Y-165955673D01*
X254204851Y-166161478D01*
X254207981Y-166163563D01*
X254443320Y-166320332D01*
X254452574Y-166327237D01*
X254453649Y-166328000D01*
X254457389Y-166331115D01*
X254461560Y-166333615D01*
X254463988Y-166335071D01*
X254463992Y-166335073D01*
X254468156Y-166337569D01*
X254472659Y-166339396D01*
X254477022Y-166341573D01*
X254477008Y-166341602D01*
X254479008Y-166342519D01*
X254484529Y-166345360D01*
X254491855Y-166350562D01*
X254500345Y-166353498D01*
X254519014Y-166359954D01*
X254535256Y-166366880D01*
X256031649Y-167133075D01*
X256033854Y-167134233D01*
X257548232Y-167949255D01*
X257550413Y-167950458D01*
X258242165Y-168341253D01*
X259047724Y-168796343D01*
X259049960Y-168797637D01*
X260529515Y-169673989D01*
X260531725Y-169675328D01*
X261004001Y-169968307D01*
X261993128Y-170581917D01*
X261995244Y-170583261D01*
X263364691Y-171472201D01*
X263437662Y-171519568D01*
X263439808Y-171520992D01*
X264151278Y-172003845D01*
X264862741Y-172486693D01*
X264864864Y-172488166D01*
X266267656Y-173482814D01*
X266269749Y-173484330D01*
X267651887Y-174507562D01*
X267653947Y-174509120D01*
X269014839Y-175560498D01*
X269016787Y-175562035D01*
X269732887Y-176139101D01*
X270355842Y-176641107D01*
X270357837Y-176642749D01*
X270950744Y-177140934D01*
X271674442Y-177749016D01*
X271676354Y-177750655D01*
X272497678Y-178470009D01*
X272970021Y-178883709D01*
X272971947Y-178885431D01*
X273966668Y-179793364D01*
X274242083Y-180044750D01*
X274243971Y-180046509D01*
X275490097Y-181231659D01*
X275491889Y-181233399D01*
X276713449Y-182443850D01*
X276715265Y-182445687D01*
X277911693Y-183680877D01*
X277913472Y-183682751D01*
X279084367Y-184942265D01*
X279086107Y-184944176D01*
X280230887Y-186227389D01*
X280232586Y-186229333D01*
X280882731Y-186988893D01*
X281350836Y-187535778D01*
X281352484Y-187537743D01*
X281692677Y-187952095D01*
X282443722Y-188866860D01*
X282445341Y-188868874D01*
X283313455Y-189971579D01*
X283509089Y-190220080D01*
X283510657Y-190222116D01*
X284326883Y-191303833D01*
X284518545Y-191557837D01*
X284529626Y-191575352D01*
X284539318Y-191593892D01*
X284545542Y-191600360D01*
X284560014Y-191615399D01*
X284570965Y-191628438D01*
X284588578Y-191652547D01*
X284595695Y-191658018D01*
X284595795Y-191658095D01*
X284617512Y-191679429D01*
X284673564Y-191749715D01*
X284688576Y-191773606D01*
X284735915Y-191871907D01*
X284745234Y-191898539D01*
X284769512Y-192004909D01*
X284772671Y-192032946D01*
X284772671Y-192142054D01*
X284769512Y-192170091D01*
X284745234Y-192276461D01*
X284735915Y-192303093D01*
X284688576Y-192401394D01*
X284673567Y-192425281D01*
X284621645Y-192490389D01*
X284610515Y-192501385D01*
X284611127Y-192502012D01*
X284604701Y-192508283D01*
X284597453Y-192513578D01*
X284591982Y-192520695D01*
X284591978Y-192520699D01*
X284578048Y-192538820D01*
X284567248Y-192551124D01*
X272725347Y-204393026D01*
X272710580Y-204405672D01*
X272691203Y-204419828D01*
X272685732Y-204426945D01*
X272685730Y-204426947D01*
X272681821Y-204432032D01*
X272664441Y-204450461D01*
X272509991Y-204584293D01*
X272495608Y-204595060D01*
X272302328Y-204719274D01*
X272286549Y-204727890D01*
X272077561Y-204823331D01*
X272060719Y-204829612D01*
X271840282Y-204894338D01*
X271822718Y-204898160D01*
X271709009Y-204914509D01*
X271595301Y-204930857D01*
X271577370Y-204932139D01*
X271347630Y-204932139D01*
X271329699Y-204930857D01*
X271215991Y-204914509D01*
X271102282Y-204898160D01*
X271084718Y-204894338D01*
X270864281Y-204829612D01*
X270847439Y-204823331D01*
X270638451Y-204727890D01*
X270622672Y-204719274D01*
X270429397Y-204595063D01*
X270415006Y-204584290D01*
X270276264Y-204464070D01*
X270260134Y-204447240D01*
X269207052Y-203122175D01*
X269207043Y-203122164D01*
X269206629Y-203121643D01*
X268103602Y-201794566D01*
X266971734Y-200492000D01*
X266971312Y-200491536D01*
X266971278Y-200491497D01*
X265812022Y-199215069D01*
X265811570Y-199214571D01*
X265194862Y-198564754D01*
X264624168Y-197963421D01*
X264624132Y-197963384D01*
X264623668Y-197962895D01*
X264623180Y-197962403D01*
X264623151Y-197962373D01*
X264083935Y-197418607D01*
X263408600Y-196737574D01*
X262166949Y-195539197D01*
X262166472Y-195538757D01*
X262166443Y-195538729D01*
X260899813Y-194368801D01*
X260899314Y-194368340D01*
X259606304Y-193225568D01*
X259605800Y-193225142D01*
X259605762Y-193225109D01*
X258289050Y-192111858D01*
X258289023Y-192111835D01*
X258288542Y-192111429D01*
X258288062Y-192111041D01*
X258288021Y-192111007D01*
X256947203Y-191026899D01*
X256947201Y-191026897D01*
X256946660Y-191026460D01*
X256897594Y-190988537D01*
X255581820Y-189971579D01*
X255581805Y-189971568D01*
X255581306Y-189971182D01*
X254193135Y-188946104D01*
X252782816Y-187951718D01*
X252164533Y-187535778D01*
X251351605Y-186988893D01*
X251351573Y-186988872D01*
X251351026Y-186988504D01*
X251248869Y-186922987D01*
X249899011Y-186057279D01*
X249898456Y-186056923D01*
X248425803Y-185157425D01*
X248055525Y-184942265D01*
X246934364Y-184290783D01*
X246934319Y-184290757D01*
X246933776Y-184290442D01*
X246908982Y-184276753D01*
X245423677Y-183456714D01*
X245423647Y-183456698D01*
X245423093Y-183456392D01*
X245422516Y-183456090D01*
X245422496Y-183456079D01*
X244186946Y-182808874D01*
X243894481Y-182655675D01*
X243893909Y-182655391D01*
X243893891Y-182655382D01*
X242349281Y-181888977D01*
X242349268Y-181888971D01*
X242348674Y-181888676D01*
X242093043Y-181768750D01*
X263392790Y-181768750D01*
X263412609Y-182083770D01*
X263471755Y-182393822D01*
X263569294Y-182694016D01*
X263570981Y-182697602D01*
X263570983Y-182697606D01*
X263702000Y-182976033D01*
X263702004Y-182976040D01*
X263703688Y-182979619D01*
X263872818Y-183246125D01*
X263875343Y-183249177D01*
X264046767Y-183456392D01*
X264074017Y-183489332D01*
X264304110Y-183705404D01*
X264559471Y-183890934D01*
X264836071Y-184042997D01*
X264839740Y-184044450D01*
X264839745Y-184044452D01*
X265125878Y-184157740D01*
X265129548Y-184159193D01*
X265435275Y-184237690D01*
X265748429Y-184277250D01*
X266064071Y-184277250D01*
X266377225Y-184237690D01*
X266682952Y-184159193D01*
X266686622Y-184157740D01*
X266972755Y-184044452D01*
X266972760Y-184044450D01*
X266976429Y-184042997D01*
X267253029Y-183890934D01*
X267508390Y-183705404D01*
X267738483Y-183489332D01*
X267765734Y-183456392D01*
X267937157Y-183249177D01*
X267939682Y-183246125D01*
X268108812Y-182979619D01*
X268110496Y-182976040D01*
X268110500Y-182976033D01*
X268241517Y-182697606D01*
X268241519Y-182697602D01*
X268243206Y-182694016D01*
X268340745Y-182393822D01*
X268399891Y-182083770D01*
X268419710Y-181768750D01*
X268399891Y-181453730D01*
X268340745Y-181143678D01*
X268243206Y-180843484D01*
X268194985Y-180741008D01*
X268110500Y-180561467D01*
X268110496Y-180561460D01*
X268108812Y-180557881D01*
X267939682Y-180291375D01*
X267738483Y-180048168D01*
X267508390Y-179832096D01*
X267253029Y-179646566D01*
X267050233Y-179535077D01*
X266979898Y-179496410D01*
X266979897Y-179496409D01*
X266976429Y-179494503D01*
X266972760Y-179493050D01*
X266972755Y-179493048D01*
X266686622Y-179379760D01*
X266686621Y-179379760D01*
X266682952Y-179378307D01*
X266377225Y-179299810D01*
X266064071Y-179260250D01*
X265748429Y-179260250D01*
X265435275Y-179299810D01*
X265129548Y-179378307D01*
X265125879Y-179379760D01*
X265125878Y-179379760D01*
X264839745Y-179493048D01*
X264839740Y-179493050D01*
X264836071Y-179494503D01*
X264832603Y-179496409D01*
X264832602Y-179496410D01*
X264762268Y-179535077D01*
X264559471Y-179646566D01*
X264304110Y-179832096D01*
X264074017Y-180048168D01*
X263872818Y-180291375D01*
X263703688Y-180557881D01*
X263702004Y-180561460D01*
X263702000Y-180561467D01*
X263617515Y-180741008D01*
X263569294Y-180843484D01*
X263471755Y-181143678D01*
X263412609Y-181453730D01*
X263392790Y-181768750D01*
X242093043Y-181768750D01*
X242084606Y-181764792D01*
X240787068Y-181156071D01*
X240786418Y-181155766D01*
X239208462Y-180457296D01*
X237615567Y-179793602D01*
X237614959Y-179793364D01*
X236009139Y-179165254D01*
X236009113Y-179165244D01*
X236008499Y-179165004D01*
X234388031Y-178571804D01*
X234387409Y-178571592D01*
X234387362Y-178571575D01*
X232755610Y-178014515D01*
X232755606Y-178014514D01*
X232754942Y-178014287D01*
X231110019Y-177492722D01*
X229454052Y-177007360D01*
X229453437Y-177007194D01*
X229453404Y-177007185D01*
X227788450Y-176558599D01*
X227787838Y-176558434D01*
X226112179Y-176146160D01*
X224912106Y-175878668D01*
X224428550Y-175770885D01*
X224428540Y-175770883D01*
X224427881Y-175770736D01*
X222735754Y-175432343D01*
X222735063Y-175432220D01*
X222735055Y-175432219D01*
X221037273Y-175131261D01*
X221037258Y-175131259D01*
X221036612Y-175131144D01*
X221035944Y-175131041D01*
X221035922Y-175131037D01*
X219331974Y-174867392D01*
X219331934Y-174867386D01*
X219331273Y-174867284D01*
X218893221Y-174809313D01*
X217621270Y-174640983D01*
X217621239Y-174640979D01*
X217620557Y-174640889D01*
X217619844Y-174640811D01*
X217619815Y-174640807D01*
X215906025Y-174452150D01*
X215906003Y-174452148D01*
X215905287Y-174452069D01*
X215904600Y-174452009D01*
X215904584Y-174452007D01*
X214186959Y-174300974D01*
X214186288Y-174300915D01*
X214184815Y-174300818D01*
X212465075Y-174187543D01*
X212465053Y-174187542D01*
X212464388Y-174187498D01*
X212463695Y-174187468D01*
X212463684Y-174187467D01*
X210741126Y-174111906D01*
X210741109Y-174111905D01*
X210740415Y-174111875D01*
X209015197Y-174074080D01*
X209014472Y-174074080D01*
X208149995Y-174074107D01*
X207289566Y-174074133D01*
X207288902Y-174074148D01*
X207288863Y-174074148D01*
X205582998Y-174111623D01*
X205578830Y-174111551D01*
X205576885Y-174111289D01*
X205564335Y-174111550D01*
X205559545Y-174112398D01*
X205559543Y-174112398D01*
X205547260Y-174114572D01*
X205525301Y-174116500D01*
X181024367Y-174116500D01*
X181004982Y-174115000D01*
X180990149Y-174112690D01*
X180990145Y-174112690D01*
X180981276Y-174111309D01*
X180972374Y-174112473D01*
X180972372Y-174112473D01*
X180968064Y-174113037D01*
X180963280Y-174113662D01*
X180939883Y-174114528D01*
X180683508Y-174100131D01*
X180669476Y-174098550D01*
X180529048Y-174074690D01*
X180388624Y-174050830D01*
X180374849Y-174047686D01*
X180101109Y-173968823D01*
X180087772Y-173964156D01*
X179824582Y-173855139D01*
X179811852Y-173849008D01*
X179562532Y-173711214D01*
X179550568Y-173703697D01*
X179318238Y-173538851D01*
X179307190Y-173530041D01*
X179094776Y-173340215D01*
X179084785Y-173330224D01*
X178894959Y-173117810D01*
X178886149Y-173106762D01*
X178721303Y-172874432D01*
X178713786Y-172862468D01*
X178575992Y-172613148D01*
X178569861Y-172600418D01*
X178460844Y-172337228D01*
X178456177Y-172323891D01*
X178377314Y-172050151D01*
X178374170Y-172036376D01*
X178326451Y-171755529D01*
X178324869Y-171741488D01*
X178319627Y-171648129D01*
X178311089Y-171496100D01*
X178312411Y-171472208D01*
X178312334Y-171472201D01*
X178312537Y-171469937D01*
X178312637Y-171468131D01*
X178312770Y-171467342D01*
X178313576Y-171462552D01*
X178313729Y-171450000D01*
X178309773Y-171422376D01*
X178308500Y-171404514D01*
X178308500Y-165153250D01*
X178310246Y-165132345D01*
X178312770Y-165117344D01*
X178312770Y-165117341D01*
X178313576Y-165112552D01*
X178313729Y-165100000D01*
X178313039Y-165095183D01*
X178312826Y-165091915D01*
X178312627Y-165087849D01*
X178295000Y-164549377D01*
X178294999Y-164549368D01*
X178294932Y-164547309D01*
X178240730Y-163996985D01*
X178235098Y-163962868D01*
X178150988Y-163453427D01*
X178150651Y-163451384D01*
X178025080Y-162912843D01*
X177864557Y-162383668D01*
X177669767Y-161866124D01*
X177583588Y-161675921D01*
X177442400Y-161364313D01*
X177441546Y-161362428D01*
X177440577Y-161360614D01*
X177440570Y-161360601D01*
X177181842Y-160876558D01*
X177181840Y-160876554D01*
X177180869Y-160874738D01*
X176888855Y-160405140D01*
X176583379Y-159978848D01*
X176567941Y-159957305D01*
X176567938Y-159957302D01*
X176566752Y-159955646D01*
X176522920Y-159902237D01*
X223049971Y-159902237D01*
X223058798Y-159913855D01*
X223281531Y-160075680D01*
X223288211Y-160079920D01*
X223557822Y-160228140D01*
X223564957Y-160231497D01*
X223851020Y-160344758D01*
X223858546Y-160347203D01*
X224156529Y-160423712D01*
X224164300Y-160425195D01*
X224469528Y-160463753D01*
X224477419Y-160464250D01*
X224785081Y-160464250D01*
X224792972Y-160463753D01*
X225098200Y-160425195D01*
X225105971Y-160423712D01*
X225403954Y-160347203D01*
X225411480Y-160344758D01*
X225697543Y-160231497D01*
X225704678Y-160228140D01*
X225974289Y-160079920D01*
X225980969Y-160075680D01*
X226204073Y-159913586D01*
X226212496Y-159902663D01*
X226205592Y-159889802D01*
X224644062Y-158328272D01*
X224630118Y-158320658D01*
X224628285Y-158320789D01*
X224621670Y-158325040D01*
X223056584Y-159890126D01*
X223049971Y-159902237D01*
X176522920Y-159902237D01*
X176215941Y-159528182D01*
X176208327Y-159520052D01*
X175839327Y-159126074D01*
X175837924Y-159124576D01*
X175574186Y-158877559D01*
X175435829Y-158747974D01*
X175435826Y-158747971D01*
X175434318Y-158746559D01*
X175006854Y-158395748D01*
X174912692Y-158328272D01*
X174559039Y-158074848D01*
X174559036Y-158074846D01*
X174557360Y-158073645D01*
X174374938Y-157960208D01*
X222118540Y-157960208D01*
X222137857Y-158267244D01*
X222138850Y-158275105D01*
X222196496Y-158577296D01*
X222198467Y-158584973D01*
X222293534Y-158877559D01*
X222296449Y-158884922D01*
X222427439Y-159163291D01*
X222431251Y-159170224D01*
X222596101Y-159429986D01*
X222600745Y-159436379D01*
X222675747Y-159527040D01*
X222688264Y-159535495D01*
X222699002Y-159529288D01*
X224259228Y-157969062D01*
X224265606Y-157957382D01*
X224995658Y-157957382D01*
X224995789Y-157959215D01*
X225000040Y-157965830D01*
X226562395Y-159528185D01*
X226575657Y-159535427D01*
X226585762Y-159528238D01*
X226661755Y-159436379D01*
X226666399Y-159429986D01*
X226831249Y-159170224D01*
X226835061Y-159163291D01*
X226966051Y-158884922D01*
X226968966Y-158877559D01*
X227064033Y-158584973D01*
X227066004Y-158577296D01*
X227123650Y-158275105D01*
X227124643Y-158267244D01*
X227143960Y-157960208D01*
X227143960Y-157952292D01*
X227124643Y-157645256D01*
X227123650Y-157637395D01*
X227066004Y-157335204D01*
X227064033Y-157327527D01*
X226968966Y-157034941D01*
X226966051Y-157027578D01*
X226835061Y-156749209D01*
X226831249Y-156742276D01*
X226666399Y-156482514D01*
X226661755Y-156476121D01*
X226586753Y-156385460D01*
X226574236Y-156377005D01*
X226563498Y-156383212D01*
X225003272Y-157943438D01*
X224995658Y-157957382D01*
X224265606Y-157957382D01*
X224266842Y-157955118D01*
X224266711Y-157953285D01*
X224262460Y-157946670D01*
X222700105Y-156384315D01*
X222686843Y-156377073D01*
X222676738Y-156384262D01*
X222600745Y-156476121D01*
X222596101Y-156482514D01*
X222431251Y-156742276D01*
X222427439Y-156749209D01*
X222296449Y-157027578D01*
X222293534Y-157034941D01*
X222198467Y-157327527D01*
X222196496Y-157335204D01*
X222138850Y-157637395D01*
X222137857Y-157645256D01*
X222118540Y-157952292D01*
X222118540Y-157960208D01*
X174374938Y-157960208D01*
X174087763Y-157781631D01*
X173600072Y-157520954D01*
X173190112Y-157335204D01*
X173098244Y-157293579D01*
X173098234Y-157293575D01*
X173096376Y-157292733D01*
X173094466Y-157292014D01*
X173094456Y-157292010D01*
X172770920Y-157170240D01*
X172578832Y-157097943D01*
X172173984Y-156975134D01*
X172051616Y-156938014D01*
X172051609Y-156938012D01*
X172049657Y-156937420D01*
X171511116Y-156811849D01*
X171131711Y-156749209D01*
X170967564Y-156722108D01*
X170967555Y-156722107D01*
X170965515Y-156721770D01*
X170963449Y-156721566D01*
X170963445Y-156721566D01*
X170417233Y-156667769D01*
X170417229Y-156667769D01*
X170415191Y-156667568D01*
X170413160Y-156667501D01*
X170413152Y-156667501D01*
X170207522Y-156660770D01*
X169888876Y-156650338D01*
X169881758Y-156649902D01*
X169879849Y-156649731D01*
X169875052Y-156648924D01*
X169868776Y-156648847D01*
X169867360Y-156648830D01*
X169867357Y-156648830D01*
X169862500Y-156648771D01*
X169838228Y-156652247D01*
X169834876Y-156652727D01*
X169817014Y-156654000D01*
X151655625Y-156654000D01*
X151636235Y-156652499D01*
X151621416Y-156650191D01*
X151612542Y-156648809D01*
X151599865Y-156650466D01*
X151572552Y-156651049D01*
X151482665Y-156643182D01*
X151429886Y-156638563D01*
X151408258Y-156634749D01*
X151364414Y-156623000D01*
X151247877Y-156591771D01*
X151227255Y-156584265D01*
X151076763Y-156514086D01*
X151057755Y-156503110D01*
X150921744Y-156407870D01*
X150904922Y-156393754D01*
X150895484Y-156384315D01*
X150787521Y-156276349D01*
X150773404Y-156259524D01*
X150678176Y-156123520D01*
X150667195Y-156104500D01*
X150617960Y-155998914D01*
X150597027Y-155954022D01*
X150589516Y-155933386D01*
X150576230Y-155883798D01*
X150546546Y-155773013D01*
X150542732Y-155751385D01*
X150530835Y-155615402D01*
X150531382Y-155599128D01*
X150530950Y-155599123D01*
X150531060Y-155590147D01*
X150532441Y-155581276D01*
X150530352Y-155565297D01*
X150528314Y-155549717D01*
X150527250Y-155533379D01*
X150527250Y-154781250D01*
X176080290Y-154781250D01*
X176100109Y-155096270D01*
X176159255Y-155406322D01*
X176160482Y-155410098D01*
X176221902Y-155599128D01*
X176256794Y-155706516D01*
X176258481Y-155710102D01*
X176258483Y-155710106D01*
X176389500Y-155988533D01*
X176389504Y-155988540D01*
X176391188Y-155992119D01*
X176393312Y-155995465D01*
X176393312Y-155995466D01*
X176395500Y-155998914D01*
X176560318Y-156258625D01*
X176761517Y-156501832D01*
X176991610Y-156717904D01*
X177246971Y-156903434D01*
X177250440Y-156905341D01*
X177250443Y-156905343D01*
X177308791Y-156937420D01*
X177523571Y-157055497D01*
X177527240Y-157056950D01*
X177527245Y-157056952D01*
X177763720Y-157150579D01*
X177817048Y-157171693D01*
X178122775Y-157250190D01*
X178435929Y-157289750D01*
X178751571Y-157289750D01*
X179064725Y-157250190D01*
X179370452Y-157171693D01*
X179423780Y-157150579D01*
X179660255Y-157056952D01*
X179660260Y-157056950D01*
X179663929Y-157055497D01*
X179878709Y-156937420D01*
X179937057Y-156905343D01*
X179937060Y-156905341D01*
X179940529Y-156903434D01*
X180195890Y-156717904D01*
X180425983Y-156501832D01*
X180627182Y-156258625D01*
X180785068Y-156009837D01*
X223050004Y-156009837D01*
X223056908Y-156022698D01*
X224618438Y-157584228D01*
X224632382Y-157591842D01*
X224634215Y-157591711D01*
X224640830Y-157587460D01*
X226205916Y-156022374D01*
X226212529Y-156010263D01*
X226203702Y-155998645D01*
X225980969Y-155836820D01*
X225974289Y-155832580D01*
X225704678Y-155684360D01*
X225697543Y-155681003D01*
X225411480Y-155567742D01*
X225403954Y-155565297D01*
X225105971Y-155488788D01*
X225098200Y-155487305D01*
X224792972Y-155448747D01*
X224785081Y-155448250D01*
X224477419Y-155448250D01*
X224469528Y-155448747D01*
X224164300Y-155487305D01*
X224156529Y-155488788D01*
X223858546Y-155565297D01*
X223851020Y-155567742D01*
X223564957Y-155681003D01*
X223557822Y-155684360D01*
X223288211Y-155832580D01*
X223281531Y-155836820D01*
X223058427Y-155998914D01*
X223050004Y-156009837D01*
X180785068Y-156009837D01*
X180792000Y-155998914D01*
X180794188Y-155995466D01*
X180794188Y-155995465D01*
X180796312Y-155992119D01*
X180797996Y-155988540D01*
X180798000Y-155988533D01*
X180929017Y-155710106D01*
X180929019Y-155710102D01*
X180930706Y-155706516D01*
X180965599Y-155599128D01*
X181027018Y-155410098D01*
X181028245Y-155406322D01*
X181087391Y-155096270D01*
X181107210Y-154781250D01*
X181087391Y-154466230D01*
X181028245Y-154156178D01*
X180930706Y-153855984D01*
X180929017Y-153852394D01*
X180798000Y-153573967D01*
X180797996Y-153573960D01*
X180796312Y-153570381D01*
X180627182Y-153303875D01*
X180425983Y-153060668D01*
X180195890Y-152844596D01*
X179940529Y-152659066D01*
X179663929Y-152507003D01*
X179660260Y-152505550D01*
X179660255Y-152505548D01*
X179374122Y-152392260D01*
X179374121Y-152392260D01*
X179370452Y-152390807D01*
X179064725Y-152312310D01*
X178751571Y-152272750D01*
X178435929Y-152272750D01*
X178122775Y-152312310D01*
X177817048Y-152390807D01*
X177813379Y-152392260D01*
X177813378Y-152392260D01*
X177527245Y-152505548D01*
X177527240Y-152505550D01*
X177523571Y-152507003D01*
X177246971Y-152659066D01*
X176991610Y-152844596D01*
X176761517Y-153060668D01*
X176560318Y-153303875D01*
X176391188Y-153570381D01*
X176389504Y-153573960D01*
X176389500Y-153573967D01*
X176258483Y-153852394D01*
X176256794Y-153855984D01*
X176159255Y-154156178D01*
X176100109Y-154466230D01*
X176080290Y-154781250D01*
X150527250Y-154781250D01*
X150527250Y-150071984D01*
X150528996Y-150051083D01*
X150531518Y-150036087D01*
X150532326Y-150031286D01*
X150532479Y-150018734D01*
X150531790Y-150013923D01*
X150531778Y-150013742D01*
X150530812Y-150004477D01*
X150514039Y-149748684D01*
X150514039Y-149748682D01*
X150513769Y-149744569D01*
X150460161Y-149475096D01*
X150409275Y-149325197D01*
X150373166Y-149218831D01*
X150371840Y-149214925D01*
X150250316Y-148968507D01*
X150234570Y-148944941D01*
X150099958Y-148743485D01*
X150097669Y-148740059D01*
X150094957Y-148736967D01*
X150094952Y-148736960D01*
X149919220Y-148536578D01*
X149916511Y-148533489D01*
X149889920Y-148510169D01*
X149713040Y-148355048D01*
X149713033Y-148355043D01*
X149709941Y-148352331D01*
X149481493Y-148199684D01*
X149477797Y-148197861D01*
X149477793Y-148197859D01*
X149324865Y-148122441D01*
X149235075Y-148078160D01*
X149231169Y-148076834D01*
X148978814Y-147991166D01*
X148978809Y-147991165D01*
X148974904Y-147989839D01*
X148970850Y-147989032D01*
X148970848Y-147989032D01*
X148709478Y-147937036D01*
X148709477Y-147937036D01*
X148705431Y-147936231D01*
X148701320Y-147935961D01*
X148701317Y-147935961D01*
X148561474Y-147926791D01*
X148463839Y-147920389D01*
X148451178Y-147918912D01*
X148448614Y-147918481D01*
X148448615Y-147918481D01*
X148443818Y-147917674D01*
X148437833Y-147917601D01*
X148436133Y-147917580D01*
X148436129Y-147917580D01*
X148431266Y-147917521D01*
X148426448Y-147918211D01*
X148426445Y-147918211D01*
X148403628Y-147921478D01*
X148385770Y-147922750D01*
X132605625Y-147922750D01*
X132586235Y-147921249D01*
X132571416Y-147918941D01*
X132562542Y-147917559D01*
X132549865Y-147919216D01*
X132522552Y-147919799D01*
X132379880Y-147907313D01*
X132358252Y-147903499D01*
X132197875Y-147860523D01*
X132177236Y-147853011D01*
X132026754Y-147782837D01*
X132007735Y-147771856D01*
X131871724Y-147676619D01*
X131854900Y-147662501D01*
X131737499Y-147545100D01*
X131723381Y-147528276D01*
X131628144Y-147392265D01*
X131617163Y-147373246D01*
X131546989Y-147222764D01*
X131539477Y-147202125D01*
X131496501Y-147041748D01*
X131492687Y-147020120D01*
X131480804Y-146884343D01*
X131481358Y-146867860D01*
X131480951Y-146867855D01*
X131481060Y-146858880D01*
X131482441Y-146850010D01*
X131478314Y-146818456D01*
X131477250Y-146802115D01*
X131477250Y-139753250D01*
X131478996Y-139732345D01*
X131481520Y-139717344D01*
X131481520Y-139717341D01*
X131482326Y-139712552D01*
X131482479Y-139700000D01*
X131481723Y-139694720D01*
X131480720Y-139685100D01*
X131463998Y-139429950D01*
X131463997Y-139429944D01*
X131463728Y-139425836D01*
X131410127Y-139156362D01*
X131321813Y-138896190D01*
X131200295Y-138649771D01*
X131047653Y-138421320D01*
X130908375Y-138262500D01*
X165761540Y-138262500D01*
X165781359Y-138577520D01*
X165840505Y-138887572D01*
X165938044Y-139187766D01*
X165939731Y-139191352D01*
X165939733Y-139191356D01*
X166070750Y-139469783D01*
X166070754Y-139469790D01*
X166072438Y-139473369D01*
X166241568Y-139739875D01*
X166442767Y-139983082D01*
X166672860Y-140199154D01*
X166928221Y-140384684D01*
X167204821Y-140536747D01*
X167208490Y-140538200D01*
X167208495Y-140538202D01*
X167494628Y-140651490D01*
X167498298Y-140652943D01*
X167804025Y-140731440D01*
X168117179Y-140771000D01*
X168432821Y-140771000D01*
X168745975Y-140731440D01*
X169051702Y-140652943D01*
X169055372Y-140651490D01*
X169341505Y-140538202D01*
X169341510Y-140538200D01*
X169345179Y-140536747D01*
X169621779Y-140384684D01*
X169877140Y-140199154D01*
X170107233Y-139983082D01*
X170308432Y-139739875D01*
X170477562Y-139473369D01*
X170479246Y-139469790D01*
X170479250Y-139469783D01*
X170610267Y-139191356D01*
X170610269Y-139191352D01*
X170611956Y-139187766D01*
X170709495Y-138887572D01*
X170768641Y-138577520D01*
X170788460Y-138262500D01*
X170768641Y-137947480D01*
X170709495Y-137637428D01*
X170616608Y-137351550D01*
X170613182Y-137341007D01*
X170613182Y-137341006D01*
X170611956Y-137337234D01*
X170607584Y-137327943D01*
X170479250Y-137055217D01*
X170479246Y-137055210D01*
X170477562Y-137051631D01*
X170308432Y-136785125D01*
X170107233Y-136541918D01*
X170095901Y-136531276D01*
X169971946Y-136414875D01*
X169877140Y-136325846D01*
X169621779Y-136140316D01*
X169345179Y-135988253D01*
X169341510Y-135986800D01*
X169341505Y-135986798D01*
X169055372Y-135873510D01*
X169055371Y-135873510D01*
X169051702Y-135872057D01*
X168745975Y-135793560D01*
X168432821Y-135754000D01*
X168117179Y-135754000D01*
X167804025Y-135793560D01*
X167498298Y-135872057D01*
X167494629Y-135873510D01*
X167494628Y-135873510D01*
X167208495Y-135986798D01*
X167208490Y-135986800D01*
X167204821Y-135988253D01*
X166928221Y-136140316D01*
X166672860Y-136325846D01*
X166578054Y-136414875D01*
X166454100Y-136531276D01*
X166442767Y-136541918D01*
X166241568Y-136785125D01*
X166072438Y-137051631D01*
X166070754Y-137055210D01*
X166070750Y-137055217D01*
X165942416Y-137327943D01*
X165938044Y-137337234D01*
X165936818Y-137341006D01*
X165936818Y-137341007D01*
X165933392Y-137351550D01*
X165840505Y-137637428D01*
X165781359Y-137947480D01*
X165761540Y-138262500D01*
X130908375Y-138262500D01*
X130866499Y-138214748D01*
X130659932Y-138033587D01*
X130625010Y-138010252D01*
X130434919Y-137883231D01*
X130434916Y-137883229D01*
X130431487Y-137880938D01*
X130427788Y-137879114D01*
X130427785Y-137879112D01*
X130188765Y-137761235D01*
X130185071Y-137759413D01*
X129924902Y-137671090D01*
X129920855Y-137670285D01*
X129920848Y-137670283D01*
X129659473Y-137618285D01*
X129659468Y-137618284D01*
X129655430Y-137617481D01*
X129651325Y-137617212D01*
X129651319Y-137617211D01*
X129477923Y-137605841D01*
X129413839Y-137601639D01*
X129401178Y-137600162D01*
X129398614Y-137599731D01*
X129398615Y-137599731D01*
X129393818Y-137598924D01*
X129387833Y-137598851D01*
X129386133Y-137598830D01*
X129386129Y-137598830D01*
X129381266Y-137598771D01*
X129376448Y-137599461D01*
X129376445Y-137599461D01*
X129353628Y-137602728D01*
X129335770Y-137604000D01*
X113555625Y-137604000D01*
X113536235Y-137602499D01*
X113521416Y-137600191D01*
X113512542Y-137598809D01*
X113499865Y-137600466D01*
X113472552Y-137601049D01*
X113382665Y-137593182D01*
X113329886Y-137588563D01*
X113308258Y-137584749D01*
X113272732Y-137575229D01*
X113147877Y-137541771D01*
X113127255Y-137534265D01*
X112976763Y-137464086D01*
X112957755Y-137453110D01*
X112821744Y-137357870D01*
X112804922Y-137343754D01*
X112794813Y-137333644D01*
X112687521Y-137226349D01*
X112673404Y-137209524D01*
X112578176Y-137073520D01*
X112567195Y-137054500D01*
X112497028Y-136904025D01*
X112489516Y-136883386D01*
X112487043Y-136874154D01*
X112446546Y-136723013D01*
X112442732Y-136701385D01*
X112430835Y-136565402D01*
X112431382Y-136549128D01*
X112430950Y-136549123D01*
X112431060Y-136540147D01*
X112432441Y-136531276D01*
X112428314Y-136499714D01*
X112427250Y-136483379D01*
X112427250Y-134937500D01*
X223580290Y-134937500D01*
X223600109Y-135252520D01*
X223659255Y-135562572D01*
X223756794Y-135862766D01*
X223758481Y-135866352D01*
X223758483Y-135866356D01*
X223889500Y-136144783D01*
X223889504Y-136144790D01*
X223891188Y-136148369D01*
X224060318Y-136414875D01*
X224261517Y-136658082D01*
X224491610Y-136874154D01*
X224746971Y-137059684D01*
X225023571Y-137211747D01*
X225027240Y-137213200D01*
X225027245Y-137213202D01*
X225060451Y-137226349D01*
X225317048Y-137327943D01*
X225622775Y-137406440D01*
X225935929Y-137446000D01*
X226251571Y-137446000D01*
X226564725Y-137406440D01*
X226870452Y-137327943D01*
X227127049Y-137226349D01*
X227160255Y-137213202D01*
X227160260Y-137213200D01*
X227163929Y-137211747D01*
X227440529Y-137059684D01*
X227695890Y-136874154D01*
X227925983Y-136658082D01*
X228127182Y-136414875D01*
X228296312Y-136148369D01*
X228297996Y-136144790D01*
X228298000Y-136144783D01*
X228429017Y-135866356D01*
X228429019Y-135866352D01*
X228430706Y-135862766D01*
X228528245Y-135562572D01*
X228587391Y-135252520D01*
X228607210Y-134937500D01*
X228587391Y-134622480D01*
X228528245Y-134312428D01*
X228430706Y-134012234D01*
X228429017Y-134008644D01*
X228298000Y-133730217D01*
X228297996Y-133730210D01*
X228296312Y-133726631D01*
X228127182Y-133460125D01*
X227925983Y-133216918D01*
X227695890Y-133000846D01*
X227440529Y-132815316D01*
X227163929Y-132663253D01*
X227160260Y-132661800D01*
X227160255Y-132661798D01*
X226874122Y-132548510D01*
X226874121Y-132548510D01*
X226870452Y-132547057D01*
X226564725Y-132468560D01*
X226251571Y-132429000D01*
X225935929Y-132429000D01*
X225622775Y-132468560D01*
X225317048Y-132547057D01*
X225313379Y-132548510D01*
X225313378Y-132548510D01*
X225027245Y-132661798D01*
X225027240Y-132661800D01*
X225023571Y-132663253D01*
X224746971Y-132815316D01*
X224491610Y-133000846D01*
X224261517Y-133216918D01*
X224060318Y-133460125D01*
X223891188Y-133726631D01*
X223889504Y-133730210D01*
X223889500Y-133730217D01*
X223758483Y-134008644D01*
X223756794Y-134012234D01*
X223659255Y-134312428D01*
X223600109Y-134622480D01*
X223580290Y-134937500D01*
X112427250Y-134937500D01*
X112427250Y-128787500D01*
X128580290Y-128787500D01*
X128600109Y-129102520D01*
X128659255Y-129412572D01*
X128756794Y-129712766D01*
X128758481Y-129716352D01*
X128758483Y-129716356D01*
X128889500Y-129994783D01*
X128889504Y-129994790D01*
X128891188Y-129998369D01*
X129060318Y-130264875D01*
X129261517Y-130508082D01*
X129491610Y-130724154D01*
X129746971Y-130909684D01*
X130023571Y-131061747D01*
X130027240Y-131063200D01*
X130027245Y-131063202D01*
X130313378Y-131176490D01*
X130317048Y-131177943D01*
X130622775Y-131256440D01*
X130935929Y-131296000D01*
X131251571Y-131296000D01*
X131564725Y-131256440D01*
X131870452Y-131177943D01*
X131874122Y-131176490D01*
X132160255Y-131063202D01*
X132160260Y-131063200D01*
X132163929Y-131061747D01*
X132440529Y-130909684D01*
X132695890Y-130724154D01*
X132925983Y-130508082D01*
X133127182Y-130264875D01*
X133296312Y-129998369D01*
X133297996Y-129994790D01*
X133298000Y-129994783D01*
X133429017Y-129716356D01*
X133429019Y-129716352D01*
X133430706Y-129712766D01*
X133528245Y-129412572D01*
X133587391Y-129102520D01*
X133607210Y-128787500D01*
X133587391Y-128472480D01*
X133528245Y-128162428D01*
X133430706Y-127862234D01*
X133429017Y-127858644D01*
X133298000Y-127580217D01*
X133297996Y-127580210D01*
X133296312Y-127576631D01*
X133127182Y-127310125D01*
X132925983Y-127066918D01*
X132695890Y-126850846D01*
X132440529Y-126665316D01*
X132163929Y-126513253D01*
X132160260Y-126511800D01*
X132160255Y-126511798D01*
X131874122Y-126398510D01*
X131874121Y-126398510D01*
X131870452Y-126397057D01*
X131564725Y-126318560D01*
X131251571Y-126279000D01*
X130935929Y-126279000D01*
X130622775Y-126318560D01*
X130317048Y-126397057D01*
X130313379Y-126398510D01*
X130313378Y-126398510D01*
X130027245Y-126511798D01*
X130027240Y-126511800D01*
X130023571Y-126513253D01*
X129746971Y-126665316D01*
X129491610Y-126850846D01*
X129261517Y-127066918D01*
X129060318Y-127310125D01*
X128891188Y-127576631D01*
X128889504Y-127580210D01*
X128889500Y-127580217D01*
X128758483Y-127858644D01*
X128756794Y-127862234D01*
X128659255Y-128162428D01*
X128600109Y-128472480D01*
X128580290Y-128787500D01*
X112427250Y-128787500D01*
X112427250Y-120703250D01*
X112428996Y-120682345D01*
X112431520Y-120667344D01*
X112431520Y-120667341D01*
X112432326Y-120662552D01*
X112432479Y-120650000D01*
X112431292Y-120641709D01*
X112430499Y-120612869D01*
X112442684Y-120473606D01*
X112446497Y-120451979D01*
X112489469Y-120291597D01*
X112496978Y-120270964D01*
X112567153Y-120120473D01*
X112578133Y-120101455D01*
X112673366Y-119965444D01*
X112687483Y-119948619D01*
X112804890Y-119831208D01*
X112821714Y-119817090D01*
X112957724Y-119721851D01*
X112976744Y-119710870D01*
X113127229Y-119640693D01*
X113147868Y-119633180D01*
X113308251Y-119590201D01*
X113329880Y-119586387D01*
X113409312Y-119579435D01*
X113465453Y-119574522D01*
X113482140Y-119575083D01*
X113482145Y-119574701D01*
X113491120Y-119574810D01*
X113499990Y-119576191D01*
X113508890Y-119575027D01*
X113508892Y-119575027D01*
X113531544Y-119572064D01*
X113547885Y-119571000D01*
X129328016Y-119571000D01*
X129348917Y-119572746D01*
X129368714Y-119576076D01*
X129374959Y-119576152D01*
X129376402Y-119576170D01*
X129376406Y-119576170D01*
X129381266Y-119576229D01*
X129386080Y-119575539D01*
X129386912Y-119575485D01*
X129394868Y-119574655D01*
X129497447Y-119567929D01*
X129651326Y-119557839D01*
X129651333Y-119557838D01*
X129655437Y-119557569D01*
X129659477Y-119556765D01*
X129659479Y-119556765D01*
X129920861Y-119504765D01*
X129920868Y-119504763D01*
X129924915Y-119503958D01*
X130185090Y-119415633D01*
X130295563Y-119361151D01*
X130427810Y-119295931D01*
X130427813Y-119295929D01*
X130431512Y-119294105D01*
X130646143Y-119150687D01*
X130656533Y-119143744D01*
X130659963Y-119141452D01*
X130866534Y-118960288D01*
X131047693Y-118753710D01*
X131077321Y-118709367D01*
X131198046Y-118528685D01*
X131198049Y-118528680D01*
X131200338Y-118525254D01*
X131310636Y-118301588D01*
X131320035Y-118282529D01*
X131320038Y-118282521D01*
X131321859Y-118278829D01*
X131410175Y-118018651D01*
X131435344Y-117892119D01*
X131462973Y-117753214D01*
X131462973Y-117753211D01*
X131463777Y-117749171D01*
X131464047Y-117745056D01*
X131479613Y-117507569D01*
X131481088Y-117494915D01*
X131481518Y-117492356D01*
X131481518Y-117492355D01*
X131482326Y-117487552D01*
X131482479Y-117475000D01*
X131478523Y-117447376D01*
X131477250Y-117429514D01*
X131477250Y-114262500D01*
X166580290Y-114262500D01*
X166600109Y-114577520D01*
X166659255Y-114887572D01*
X166756794Y-115187766D01*
X166758481Y-115191352D01*
X166758483Y-115191356D01*
X166889500Y-115469783D01*
X166889504Y-115469790D01*
X166891188Y-115473369D01*
X167060318Y-115739875D01*
X167261517Y-115983082D01*
X167491610Y-116199154D01*
X167746971Y-116384684D01*
X168023571Y-116536747D01*
X168027240Y-116538200D01*
X168027245Y-116538202D01*
X168313378Y-116651490D01*
X168317048Y-116652943D01*
X168622775Y-116731440D01*
X168935929Y-116771000D01*
X169251571Y-116771000D01*
X169564725Y-116731440D01*
X169760203Y-116681250D01*
X223705290Y-116681250D01*
X223725109Y-116996270D01*
X223784255Y-117306322D01*
X223881794Y-117606516D01*
X223883481Y-117610102D01*
X223883483Y-117610106D01*
X224014500Y-117888533D01*
X224014504Y-117888540D01*
X224016188Y-117892119D01*
X224185318Y-118158625D01*
X224386517Y-118401832D01*
X224616610Y-118617904D01*
X224871971Y-118803434D01*
X225148571Y-118955497D01*
X225152240Y-118956950D01*
X225152245Y-118956952D01*
X225438378Y-119070240D01*
X225442048Y-119071693D01*
X225747775Y-119150190D01*
X226060929Y-119189750D01*
X226376571Y-119189750D01*
X226689725Y-119150190D01*
X226995452Y-119071693D01*
X226999122Y-119070240D01*
X227285255Y-118956952D01*
X227285260Y-118956950D01*
X227288929Y-118955497D01*
X227565529Y-118803434D01*
X227820890Y-118617904D01*
X228050983Y-118401832D01*
X228252182Y-118158625D01*
X228421312Y-117892119D01*
X228422996Y-117888540D01*
X228423000Y-117888533D01*
X228554017Y-117610106D01*
X228554019Y-117610102D01*
X228555706Y-117606516D01*
X228653245Y-117306322D01*
X228712391Y-116996270D01*
X228732210Y-116681250D01*
X228712391Y-116366230D01*
X228653245Y-116056178D01*
X228555706Y-115755984D01*
X228546549Y-115736524D01*
X228423000Y-115473967D01*
X228422996Y-115473960D01*
X228421312Y-115470381D01*
X228252182Y-115203875D01*
X228050983Y-114960668D01*
X227820890Y-114744596D01*
X227565529Y-114559066D01*
X227288929Y-114407003D01*
X227285260Y-114405550D01*
X227285255Y-114405548D01*
X226999122Y-114292260D01*
X226999121Y-114292260D01*
X226995452Y-114290807D01*
X226689725Y-114212310D01*
X226376571Y-114172750D01*
X226060929Y-114172750D01*
X225747775Y-114212310D01*
X225442048Y-114290807D01*
X225438379Y-114292260D01*
X225438378Y-114292260D01*
X225152245Y-114405548D01*
X225152240Y-114405550D01*
X225148571Y-114407003D01*
X224871971Y-114559066D01*
X224616610Y-114744596D01*
X224386517Y-114960668D01*
X224185318Y-115203875D01*
X224016188Y-115470381D01*
X224014504Y-115473960D01*
X224014500Y-115473967D01*
X223890951Y-115736524D01*
X223881794Y-115755984D01*
X223784255Y-116056178D01*
X223725109Y-116366230D01*
X223705290Y-116681250D01*
X169760203Y-116681250D01*
X169870452Y-116652943D01*
X169874122Y-116651490D01*
X170160255Y-116538202D01*
X170160260Y-116538200D01*
X170163929Y-116536747D01*
X170440529Y-116384684D01*
X170695890Y-116199154D01*
X170925983Y-115983082D01*
X171127182Y-115739875D01*
X171296312Y-115473369D01*
X171297996Y-115469790D01*
X171298000Y-115469783D01*
X171429017Y-115191356D01*
X171429019Y-115191352D01*
X171430706Y-115187766D01*
X171528245Y-114887572D01*
X171587391Y-114577520D01*
X171607210Y-114262500D01*
X171587391Y-113947480D01*
X171528245Y-113637428D01*
X171430706Y-113337234D01*
X171429017Y-113333644D01*
X171298000Y-113055217D01*
X171297996Y-113055210D01*
X171296312Y-113051631D01*
X171127182Y-112785125D01*
X170925983Y-112541918D01*
X170695890Y-112325846D01*
X170440529Y-112140316D01*
X170163929Y-111988253D01*
X170160260Y-111986800D01*
X170160255Y-111986798D01*
X169874122Y-111873510D01*
X169874121Y-111873510D01*
X169870452Y-111872057D01*
X169564725Y-111793560D01*
X169251571Y-111754000D01*
X168935929Y-111754000D01*
X168622775Y-111793560D01*
X168317048Y-111872057D01*
X168313379Y-111873510D01*
X168313378Y-111873510D01*
X168027245Y-111986798D01*
X168027240Y-111986800D01*
X168023571Y-111988253D01*
X167746971Y-112140316D01*
X167491610Y-112325846D01*
X167261517Y-112541918D01*
X167060318Y-112785125D01*
X166891188Y-113051631D01*
X166889504Y-113055210D01*
X166889500Y-113055217D01*
X166758483Y-113333644D01*
X166756794Y-113337234D01*
X166659255Y-113637428D01*
X166600109Y-113947480D01*
X166580290Y-114262500D01*
X131477250Y-114262500D01*
X131477250Y-111178250D01*
X131478996Y-111157345D01*
X131481520Y-111142344D01*
X131481520Y-111142341D01*
X131482326Y-111137552D01*
X131482479Y-111125000D01*
X131481292Y-111116709D01*
X131480499Y-111087869D01*
X131492684Y-110948606D01*
X131496497Y-110926979D01*
X131539469Y-110766597D01*
X131546978Y-110745964D01*
X131617153Y-110595473D01*
X131628133Y-110576455D01*
X131723366Y-110440444D01*
X131737483Y-110423619D01*
X131854890Y-110306208D01*
X131871714Y-110292090D01*
X132007724Y-110196851D01*
X132026744Y-110185870D01*
X132177229Y-110115693D01*
X132197868Y-110108180D01*
X132358251Y-110065201D01*
X132379880Y-110061387D01*
X132459312Y-110054435D01*
X132515453Y-110049522D01*
X132532140Y-110050083D01*
X132532145Y-110049701D01*
X132541120Y-110049810D01*
X132549990Y-110051191D01*
X132558890Y-110050027D01*
X132558892Y-110050027D01*
X132581544Y-110047064D01*
X132597885Y-110046000D01*
X148378016Y-110046000D01*
X148398917Y-110047746D01*
X148418714Y-110051076D01*
X148424959Y-110051152D01*
X148426402Y-110051170D01*
X148426406Y-110051170D01*
X148431266Y-110051229D01*
X148436080Y-110050539D01*
X148436912Y-110050485D01*
X148444868Y-110049655D01*
X148547447Y-110042929D01*
X148701326Y-110032839D01*
X148701333Y-110032838D01*
X148705437Y-110032569D01*
X148709477Y-110031765D01*
X148709479Y-110031765D01*
X148970861Y-109979765D01*
X148970868Y-109979763D01*
X148974915Y-109978958D01*
X149235090Y-109890633D01*
X149345563Y-109836151D01*
X149477810Y-109770931D01*
X149477813Y-109770929D01*
X149481512Y-109769105D01*
X149709963Y-109616452D01*
X149916534Y-109435288D01*
X150068061Y-109262500D01*
X204580290Y-109262500D01*
X204600109Y-109577520D01*
X204659255Y-109887572D01*
X204756794Y-110187766D01*
X204758481Y-110191352D01*
X204758483Y-110191356D01*
X204889500Y-110469783D01*
X204889504Y-110469790D01*
X204891188Y-110473369D01*
X205060318Y-110739875D01*
X205261517Y-110983082D01*
X205491610Y-111199154D01*
X205746971Y-111384684D01*
X206023571Y-111536747D01*
X206027240Y-111538200D01*
X206027245Y-111538202D01*
X206313378Y-111651490D01*
X206317048Y-111652943D01*
X206622775Y-111731440D01*
X206935929Y-111771000D01*
X207251571Y-111771000D01*
X207564725Y-111731440D01*
X207870452Y-111652943D01*
X207874122Y-111651490D01*
X208160255Y-111538202D01*
X208160260Y-111538200D01*
X208163929Y-111536747D01*
X208440529Y-111384684D01*
X208695890Y-111199154D01*
X208925983Y-110983082D01*
X209127182Y-110739875D01*
X209296312Y-110473369D01*
X209297996Y-110469790D01*
X209298000Y-110469783D01*
X209429017Y-110191356D01*
X209429019Y-110191352D01*
X209430706Y-110187766D01*
X209528245Y-109887572D01*
X209587391Y-109577520D01*
X209607210Y-109262500D01*
X209587391Y-108947480D01*
X209528245Y-108637428D01*
X209430706Y-108337234D01*
X209429017Y-108333644D01*
X209298000Y-108055217D01*
X209297996Y-108055210D01*
X209296312Y-108051631D01*
X209127182Y-107785125D01*
X208925983Y-107541918D01*
X208695890Y-107325846D01*
X208440529Y-107140316D01*
X208163929Y-106988253D01*
X208160260Y-106986800D01*
X208160255Y-106986798D01*
X207874122Y-106873510D01*
X207874121Y-106873510D01*
X207870452Y-106872057D01*
X207564725Y-106793560D01*
X207251571Y-106754000D01*
X206935929Y-106754000D01*
X206622775Y-106793560D01*
X206317048Y-106872057D01*
X206313379Y-106873510D01*
X206313378Y-106873510D01*
X206027245Y-106986798D01*
X206027240Y-106986800D01*
X206023571Y-106988253D01*
X205746971Y-107140316D01*
X205491610Y-107325846D01*
X205261517Y-107541918D01*
X205060318Y-107785125D01*
X204891188Y-108051631D01*
X204889504Y-108055210D01*
X204889500Y-108055217D01*
X204758483Y-108333644D01*
X204756794Y-108337234D01*
X204659255Y-108637428D01*
X204600109Y-108947480D01*
X204580290Y-109262500D01*
X150068061Y-109262500D01*
X150097693Y-109228710D01*
X150127321Y-109184367D01*
X150248046Y-109003685D01*
X150248049Y-109003680D01*
X150250338Y-109000254D01*
X150360636Y-108776588D01*
X150370035Y-108757529D01*
X150370038Y-108757521D01*
X150371859Y-108753829D01*
X150460175Y-108493651D01*
X150513777Y-108224171D01*
X150514047Y-108220056D01*
X150529613Y-107982569D01*
X150531088Y-107969915D01*
X150531518Y-107967356D01*
X150531518Y-107967355D01*
X150532326Y-107962552D01*
X150532479Y-107950000D01*
X150528523Y-107922376D01*
X150527250Y-107904514D01*
X150527250Y-101653250D01*
X150528996Y-101632345D01*
X150531520Y-101617344D01*
X150531520Y-101617341D01*
X150532326Y-101612552D01*
X150532479Y-101600000D01*
X150531292Y-101591709D01*
X150530499Y-101562869D01*
X150542684Y-101423606D01*
X150546497Y-101401979D01*
X150589469Y-101241597D01*
X150596978Y-101220964D01*
X150667153Y-101070473D01*
X150678133Y-101051455D01*
X150773366Y-100915444D01*
X150787483Y-100898619D01*
X150904890Y-100781208D01*
X150921714Y-100767090D01*
X151057724Y-100671851D01*
X151076744Y-100660870D01*
X151227229Y-100590693D01*
X151247868Y-100583180D01*
X151408251Y-100540201D01*
X151429880Y-100536387D01*
X151509312Y-100529435D01*
X151565453Y-100524522D01*
X151582140Y-100525083D01*
X151582145Y-100524701D01*
X151591120Y-100524810D01*
X151599990Y-100526191D01*
X151608890Y-100525027D01*
X151608892Y-100525027D01*
X151631544Y-100522064D01*
X151647885Y-100521000D01*
X167428016Y-100521000D01*
X167448917Y-100522746D01*
X167468714Y-100526076D01*
X167474959Y-100526152D01*
X167476402Y-100526170D01*
X167476406Y-100526170D01*
X167481266Y-100526229D01*
X167486080Y-100525539D01*
X167486912Y-100525485D01*
X167494868Y-100524655D01*
X167597447Y-100517929D01*
X167751326Y-100507839D01*
X167751333Y-100507838D01*
X167755437Y-100507569D01*
X167759477Y-100506765D01*
X167759479Y-100506765D01*
X168020861Y-100454765D01*
X168020868Y-100454763D01*
X168024915Y-100453958D01*
X168285090Y-100365633D01*
X168395563Y-100311151D01*
X168527810Y-100245931D01*
X168527813Y-100245929D01*
X168531512Y-100244105D01*
X168759963Y-100091452D01*
X168966534Y-99910288D01*
X169147693Y-99703710D01*
X169177321Y-99659367D01*
X169298046Y-99478685D01*
X169298049Y-99478680D01*
X169300338Y-99475254D01*
X169410636Y-99251588D01*
X169420035Y-99232529D01*
X169420038Y-99232521D01*
X169421859Y-99228829D01*
X169510175Y-98968651D01*
X169563777Y-98699171D01*
X169564047Y-98695056D01*
X169579613Y-98457569D01*
X169581088Y-98444915D01*
X169581518Y-98442356D01*
X169581518Y-98442355D01*
X169582326Y-98437552D01*
X169582479Y-98425000D01*
X169578523Y-98397376D01*
X169577250Y-98379514D01*
X169577250Y-96890750D01*
X169578996Y-96869845D01*
X169581520Y-96854844D01*
X169581520Y-96854841D01*
X169582326Y-96850052D01*
X169582479Y-96837500D01*
X169581292Y-96829209D01*
X169580499Y-96800369D01*
X169592684Y-96661106D01*
X169596497Y-96639479D01*
X169631907Y-96507321D01*
X169639470Y-96479094D01*
X169646978Y-96458464D01*
X169717153Y-96307973D01*
X169728133Y-96288955D01*
X169823366Y-96152944D01*
X169837483Y-96136119D01*
X169954890Y-96018708D01*
X169971714Y-96004590D01*
X170107724Y-95909351D01*
X170126744Y-95898370D01*
X170277229Y-95828193D01*
X170297868Y-95820680D01*
X170458251Y-95777701D01*
X170479880Y-95773887D01*
X170559312Y-95766935D01*
X170615453Y-95762022D01*
X170632140Y-95762583D01*
X170632145Y-95762201D01*
X170641120Y-95762310D01*
X170649990Y-95763691D01*
X170658890Y-95762527D01*
X170658892Y-95762527D01*
X170681544Y-95759564D01*
X170697885Y-95758500D01*
X186478016Y-95758500D01*
X186498917Y-95760246D01*
X186518714Y-95763576D01*
X186524959Y-95763652D01*
X186526402Y-95763670D01*
X186526406Y-95763670D01*
X186531266Y-95763729D01*
X186536080Y-95763039D01*
X186536912Y-95762985D01*
X186544868Y-95762155D01*
X186647447Y-95755429D01*
X186801326Y-95745339D01*
X186801333Y-95745338D01*
X186805437Y-95745069D01*
X186809477Y-95744265D01*
X186809479Y-95744265D01*
X187070861Y-95692265D01*
X187070868Y-95692263D01*
X187074915Y-95691458D01*
X187335090Y-95603133D01*
X187483339Y-95530021D01*
X187577810Y-95483431D01*
X187577813Y-95483429D01*
X187581512Y-95481605D01*
X187598627Y-95470169D01*
X187806533Y-95331244D01*
X187809963Y-95328952D01*
X188016534Y-95147788D01*
X188197693Y-94941210D01*
X188275156Y-94825275D01*
X188348046Y-94716185D01*
X188348049Y-94716180D01*
X188350338Y-94712754D01*
X188469791Y-94470523D01*
X188470035Y-94470029D01*
X188470038Y-94470021D01*
X188471859Y-94466329D01*
X188560175Y-94206151D01*
X188613777Y-93936671D01*
X188614679Y-93922908D01*
X188629613Y-93695069D01*
X188631088Y-93682415D01*
X188631518Y-93679856D01*
X188631518Y-93679855D01*
X188632326Y-93675052D01*
X188632479Y-93662500D01*
X188628523Y-93634876D01*
X188627250Y-93617014D01*
X188627250Y-91330625D01*
X188628751Y-91311235D01*
X188631059Y-91296416D01*
X188632441Y-91287542D01*
X188630784Y-91274865D01*
X188630201Y-91247551D01*
X188642687Y-91104880D01*
X188646501Y-91083252D01*
X188689477Y-90922875D01*
X188696989Y-90902236D01*
X188767163Y-90751754D01*
X188778144Y-90732735D01*
X188873381Y-90596724D01*
X188887499Y-90579900D01*
X189004900Y-90462499D01*
X189021724Y-90448381D01*
X189157735Y-90353144D01*
X189176754Y-90342163D01*
X189327236Y-90271989D01*
X189347875Y-90264477D01*
X189508252Y-90221501D01*
X189529880Y-90217687D01*
X189537855Y-90216989D01*
X189665659Y-90205804D01*
X189682140Y-90206358D01*
X189682145Y-90205951D01*
X189691120Y-90206060D01*
X189699990Y-90207441D01*
X189708890Y-90206277D01*
X189708892Y-90206277D01*
X189731544Y-90203314D01*
X189747885Y-90202250D01*
X205531875Y-90202250D01*
X205551265Y-90203751D01*
G37*
%TD.AperFunction*%
%TD*%
M02*
