%TF.GenerationSoftware,KiCad,Pcbnew,(6.0.10)*%
%TF.CreationDate,2023-04-21T21:44:23+03:00*%
%TF.ProjectId,blaster_bottom,626c6173-7465-4725-9f62-6f74746f6d2e,v1.0.0*%
%TF.SameCoordinates,Original*%
%TF.FileFunction,Legend,Top*%
%TF.FilePolarity,Positive*%
%FSLAX46Y46*%
G04 Gerber Fmt 4.6, Leading zero omitted, Abs format (unit mm)*
G04 Created by KiCad (PCBNEW (6.0.10)) date 2023-04-21 21:44:23*
%MOMM*%
%LPD*%
G01*
G04 APERTURE LIST*
%ADD10C,0.150000*%
%ADD11C,0.300000*%
G04 APERTURE END LIST*
D10*
%TO.C,*%
D11*
%TO.C, *%
G36*
X190097638Y-128825259D02*
G01*
X187873675Y-128825259D01*
X187873675Y-129937240D01*
X186761693Y-129937240D01*
X186761693Y-128825259D01*
X185649712Y-128825259D01*
X185649712Y-126601296D01*
X188985656Y-126601296D01*
X188985656Y-125489314D01*
X190097638Y-125489314D01*
X190097638Y-128825259D01*
G37*
G36*
X193433583Y-128825259D02*
G01*
X192321601Y-128825259D01*
X192321601Y-127713277D01*
X191209619Y-127713277D01*
X191209619Y-126601296D01*
X192321601Y-126601296D01*
X192321601Y-125489314D01*
X193433583Y-125489314D01*
X193433583Y-128825259D01*
G37*
G36*
X195657546Y-135497148D02*
G01*
X193433583Y-135497148D01*
X193433583Y-134385167D01*
X194545564Y-134385167D01*
X194545564Y-133273185D01*
X193433583Y-133273185D01*
X193433583Y-132161204D01*
X195657546Y-132161204D01*
X195657546Y-135497148D01*
G37*
G36*
X212337269Y-125489314D02*
G01*
X211225288Y-125489314D01*
X211225288Y-124377333D01*
X212337269Y-124377333D01*
X212337269Y-125489314D01*
G37*
G36*
X192321601Y-125489314D02*
G01*
X191209619Y-125489314D01*
X191209619Y-124377333D01*
X192321601Y-124377333D01*
X192321601Y-125489314D01*
G37*
G36*
X202329435Y-121041388D02*
G01*
X201217454Y-121041388D01*
X201217454Y-119929406D01*
X202329435Y-119929406D01*
X202329435Y-121041388D01*
G37*
G36*
X212337269Y-115481480D02*
G01*
X212337269Y-123265351D01*
X204553398Y-123265351D01*
X204553398Y-122153369D01*
X205665380Y-122153369D01*
X211225288Y-122153369D01*
X211225288Y-116593462D01*
X205665380Y-116593462D01*
X205665380Y-122153369D01*
X204553398Y-122153369D01*
X204553398Y-115481480D01*
X212337269Y-115481480D01*
G37*
G36*
X210113306Y-121041388D02*
G01*
X206777361Y-121041388D01*
X206777361Y-117705443D01*
X210113306Y-117705443D01*
X210113306Y-121041388D01*
G37*
G36*
X203441417Y-124377333D02*
G01*
X204553398Y-124377333D01*
X204553398Y-125489314D01*
X203441417Y-125489314D01*
X203441417Y-126601296D01*
X202329435Y-126601296D01*
X202329435Y-122153369D01*
X203441417Y-122153369D01*
X203441417Y-124377333D01*
G37*
G36*
X202329435Y-118817425D02*
G01*
X201217454Y-118817425D01*
X201217454Y-117705443D01*
X202329435Y-117705443D01*
X202329435Y-118817425D01*
G37*
G36*
X192321601Y-129937240D02*
G01*
X191209619Y-129937240D01*
X191209619Y-131049222D01*
X188985656Y-131049222D01*
X188985656Y-129937240D01*
X190097638Y-129937240D01*
X190097638Y-128825259D01*
X192321601Y-128825259D01*
X192321601Y-129937240D01*
G37*
G36*
X188985656Y-125489314D02*
G01*
X184537730Y-125489314D01*
X184537730Y-124377333D01*
X188985656Y-124377333D01*
X188985656Y-125489314D01*
G37*
G36*
X198993490Y-125489314D02*
G01*
X197881509Y-125489314D01*
X197881509Y-124377333D01*
X198993490Y-124377333D01*
X198993490Y-125489314D01*
G37*
G36*
X190097638Y-121041388D02*
G01*
X186761693Y-121041388D01*
X186761693Y-117705443D01*
X190097638Y-117705443D01*
X190097638Y-121041388D01*
G37*
G36*
X200105472Y-121041388D02*
G01*
X200105472Y-122153369D01*
X198993490Y-122153369D01*
X198993490Y-123265351D01*
X197881509Y-123265351D01*
X197881509Y-124377333D01*
X196769527Y-124377333D01*
X196769527Y-123265351D01*
X195657546Y-123265351D01*
X195657546Y-124377333D01*
X194545564Y-124377333D01*
X194545564Y-123265351D01*
X195657546Y-123265351D01*
X195657546Y-122153369D01*
X196769527Y-122153369D01*
X196769527Y-123265351D01*
X197881509Y-123265351D01*
X197881509Y-121041388D01*
X200105472Y-121041388D01*
G37*
G36*
X194545564Y-118817425D02*
G01*
X195657546Y-118817425D01*
X195657546Y-119929406D01*
X196769527Y-119929406D01*
X196769527Y-117705443D01*
X200105472Y-117705443D01*
X200105472Y-118817425D01*
X198993490Y-118817425D01*
X198993490Y-119929406D01*
X197881509Y-119929406D01*
X197881509Y-121041388D01*
X195657546Y-121041388D01*
X195657546Y-122153369D01*
X194545564Y-122153369D01*
X194545564Y-123265351D01*
X193433583Y-123265351D01*
X193433583Y-122153369D01*
X194545564Y-122153369D01*
X194545564Y-121041388D01*
X193433583Y-121041388D01*
X193433583Y-117705443D01*
X194545564Y-117705443D01*
X194545564Y-118817425D01*
G37*
G36*
X194545564Y-125489314D02*
G01*
X193433583Y-125489314D01*
X193433583Y-124377333D01*
X194545564Y-124377333D01*
X194545564Y-125489314D01*
G37*
G36*
X210113306Y-125489314D02*
G01*
X206777361Y-125489314D01*
X206777361Y-124377333D01*
X210113306Y-124377333D01*
X210113306Y-125489314D01*
G37*
G36*
X195657546Y-116593462D02*
G01*
X193433583Y-116593462D01*
X193433583Y-115481480D01*
X195657546Y-115481480D01*
X195657546Y-116593462D01*
G37*
G36*
X188985656Y-132161204D02*
G01*
X190097638Y-132161204D01*
X190097638Y-133273185D01*
X192321601Y-133273185D01*
X192321601Y-134385167D01*
X187873675Y-134385167D01*
X187873675Y-133273185D01*
X186761693Y-133273185D01*
X186761693Y-132161204D01*
X187873675Y-132161204D01*
X187873675Y-131049222D01*
X188985656Y-131049222D01*
X188985656Y-132161204D01*
G37*
G36*
X198993490Y-137721111D02*
G01*
X197881509Y-137721111D01*
X197881509Y-136609130D01*
X198993490Y-136609130D01*
X198993490Y-137721111D01*
G37*
G36*
X205665380Y-138833093D02*
G01*
X205665380Y-141057056D01*
X204553398Y-141057056D01*
X204553398Y-142169038D01*
X203441417Y-142169038D01*
X203441417Y-141057056D01*
X204553398Y-141057056D01*
X204553398Y-139945075D01*
X203441417Y-139945075D01*
X203441417Y-138833093D01*
X202329435Y-138833093D01*
X202329435Y-137721111D01*
X206777361Y-137721111D01*
X207889343Y-137721111D01*
X209001325Y-137721111D01*
X209001325Y-138833093D01*
X210113306Y-138833093D01*
X210113306Y-136609130D01*
X209001325Y-136609130D01*
X209001325Y-135497148D01*
X210113306Y-135497148D01*
X211225288Y-135497148D01*
X211225288Y-134385167D01*
X210113306Y-134385167D01*
X210113306Y-135497148D01*
X209001325Y-135497148D01*
X209001325Y-134385167D01*
X207889343Y-134385167D01*
X207889343Y-137721111D01*
X206777361Y-137721111D01*
X206777361Y-134385167D01*
X203441417Y-134385167D01*
X203441417Y-137721111D01*
X202329435Y-137721111D01*
X202329435Y-134385167D01*
X201217454Y-134385167D01*
X201217454Y-136609130D01*
X198993490Y-136609130D01*
X198993490Y-135497148D01*
X197881509Y-135497148D01*
X197881509Y-133273185D01*
X198993490Y-133273185D01*
X200105472Y-133273185D01*
X200105472Y-134385167D01*
X201217454Y-134385167D01*
X201217454Y-133273185D01*
X202329435Y-133273185D01*
X207889343Y-133273185D01*
X211225288Y-133273185D01*
X211225288Y-132161204D01*
X209001325Y-132161204D01*
X209001325Y-131049222D01*
X211225288Y-131049222D01*
X211225288Y-129937240D01*
X209001325Y-129937240D01*
X209001325Y-128825259D01*
X207889343Y-128825259D01*
X207889343Y-133273185D01*
X202329435Y-133273185D01*
X202329435Y-132161204D01*
X204553398Y-132161204D01*
X206777361Y-132161204D01*
X206777361Y-131049222D01*
X204553398Y-131049222D01*
X204553398Y-132161204D01*
X202329435Y-132161204D01*
X202329435Y-131049222D01*
X203441417Y-131049222D01*
X204553398Y-131049222D01*
X204553398Y-129937240D01*
X203441417Y-129937240D01*
X203441417Y-131049222D01*
X202329435Y-131049222D01*
X201217454Y-131049222D01*
X201217454Y-132161204D01*
X198993490Y-132161204D01*
X198993490Y-133273185D01*
X197881509Y-133273185D01*
X197881509Y-132161204D01*
X198993490Y-132161204D01*
X198993490Y-131049222D01*
X201217454Y-131049222D01*
X201217454Y-129937240D01*
X202329435Y-129937240D01*
X203441417Y-129937240D01*
X203441417Y-128825259D01*
X202329435Y-128825259D01*
X202329435Y-129937240D01*
X201217454Y-129937240D01*
X201217454Y-128825259D01*
X200105472Y-128825259D01*
X200105472Y-129937240D01*
X198993490Y-129937240D01*
X198993490Y-131049222D01*
X197881509Y-131049222D01*
X197881509Y-128825259D01*
X198993490Y-128825259D01*
X198993490Y-127713277D01*
X197881509Y-127713277D01*
X197881509Y-128825259D01*
X196769527Y-128825259D01*
X196769527Y-126601296D01*
X200105472Y-126601296D01*
X200105472Y-127713277D01*
X204553398Y-127713277D01*
X204553398Y-126601296D01*
X205665380Y-126601296D01*
X205665380Y-125489314D01*
X206777361Y-125489314D01*
X206777361Y-126601296D01*
X207889343Y-126601296D01*
X207889343Y-127713277D01*
X210113306Y-127713277D01*
X210113306Y-128825259D01*
X212337269Y-128825259D01*
X212337269Y-131049222D01*
X211225288Y-131049222D01*
X211225288Y-132161204D01*
X212337269Y-132161204D01*
X212337269Y-136609130D01*
X211225288Y-136609130D01*
X211225288Y-137721111D01*
X212337269Y-137721111D01*
X212337269Y-139945075D01*
X211225288Y-139945075D01*
X211225288Y-141057056D01*
X210113306Y-141057056D01*
X210113306Y-142169038D01*
X212337269Y-142169038D01*
X212337269Y-143281019D01*
X204553398Y-143281019D01*
X204553398Y-142169038D01*
X206777361Y-142169038D01*
X207889343Y-142169038D01*
X209001325Y-142169038D01*
X209001325Y-139945075D01*
X207889343Y-139945075D01*
X207889343Y-142169038D01*
X206777361Y-142169038D01*
X206777361Y-138833093D01*
X205665380Y-138833093D01*
G37*
G36*
X185649712Y-133273185D02*
G01*
X184537730Y-133273185D01*
X184537730Y-132161204D01*
X185649712Y-132161204D01*
X185649712Y-133273185D01*
G37*
G36*
X192321601Y-115481480D02*
G01*
X192321601Y-123265351D01*
X184537730Y-123265351D01*
X184537730Y-122153369D01*
X185649712Y-122153369D01*
X191209619Y-122153369D01*
X191209619Y-116593462D01*
X185649712Y-116593462D01*
X185649712Y-122153369D01*
X184537730Y-122153369D01*
X184537730Y-115481480D01*
X192321601Y-115481480D01*
G37*
G36*
X195657546Y-126601296D02*
G01*
X194545564Y-126601296D01*
X194545564Y-125489314D01*
X195657546Y-125489314D01*
X195657546Y-126601296D01*
G37*
G36*
X203441417Y-117705443D02*
G01*
X202329435Y-117705443D01*
X202329435Y-115481480D01*
X203441417Y-115481480D01*
X203441417Y-117705443D01*
G37*
G36*
X201217454Y-126601296D02*
G01*
X200105472Y-126601296D01*
X200105472Y-124377333D01*
X201217454Y-124377333D01*
X201217454Y-126601296D01*
G37*
G36*
X205665380Y-136609130D02*
G01*
X204553398Y-136609130D01*
X204553398Y-135497148D01*
X205665380Y-135497148D01*
X205665380Y-136609130D01*
G37*
G36*
X195657546Y-129937240D02*
G01*
X196769527Y-129937240D01*
X196769527Y-131049222D01*
X193433583Y-131049222D01*
X193433583Y-129937240D01*
X194545564Y-129937240D01*
X194545564Y-128825259D01*
X195657546Y-128825259D01*
X195657546Y-129937240D01*
G37*
G36*
X193433583Y-132161204D02*
G01*
X191209619Y-132161204D01*
X191209619Y-131049222D01*
X193433583Y-131049222D01*
X193433583Y-132161204D01*
G37*
G36*
X211225288Y-126601296D02*
G01*
X210113306Y-126601296D01*
X210113306Y-125489314D01*
X211225288Y-125489314D01*
X211225288Y-126601296D01*
G37*
G36*
X192321601Y-135497148D02*
G01*
X192321601Y-143281019D01*
X184537730Y-143281019D01*
X184537730Y-142169038D01*
X185649712Y-142169038D01*
X191209619Y-142169038D01*
X191209619Y-136609130D01*
X185649712Y-136609130D01*
X185649712Y-142169038D01*
X184537730Y-142169038D01*
X184537730Y-135497148D01*
X192321601Y-135497148D01*
G37*
G36*
X194545564Y-138833093D02*
G01*
X194545564Y-137721111D01*
X195657546Y-137721111D01*
X195657546Y-136609130D01*
X196769527Y-136609130D01*
X196769527Y-138833093D01*
X195657546Y-138833093D01*
X195657546Y-139945075D01*
X194545564Y-139945075D01*
X194545564Y-142169038D01*
X196769527Y-142169038D01*
X196769527Y-141057056D01*
X198993490Y-141057056D01*
X200105472Y-141057056D01*
X200105472Y-139945075D01*
X198993490Y-139945075D01*
X198993490Y-141057056D01*
X196769527Y-141057056D01*
X196769527Y-138833093D01*
X197881509Y-138833093D01*
X197881509Y-139945075D01*
X198993490Y-139945075D01*
X198993490Y-138833093D01*
X201217454Y-138833093D01*
X201217454Y-139945075D01*
X202329435Y-139945075D01*
X202329435Y-142169038D01*
X201217454Y-142169038D01*
X201217454Y-143281019D01*
X200105472Y-143281019D01*
X200105472Y-142169038D01*
X196769527Y-142169038D01*
X196769527Y-143281019D01*
X193433583Y-143281019D01*
X193433583Y-138833093D01*
X194545564Y-138833093D01*
G37*
G36*
X186761693Y-132161204D02*
G01*
X185649712Y-132161204D01*
X185649712Y-131049222D01*
X186761693Y-131049222D01*
X186761693Y-132161204D01*
G37*
G36*
X190097638Y-141057056D02*
G01*
X186761693Y-141057056D01*
X186761693Y-137721111D01*
X190097638Y-137721111D01*
X190097638Y-141057056D01*
G37*
G36*
X201217454Y-123265351D02*
G01*
X200105472Y-123265351D01*
X200105472Y-122153369D01*
X201217454Y-122153369D01*
X201217454Y-123265351D01*
G37*
G36*
X201217454Y-119929406D02*
G01*
X200105472Y-119929406D01*
X200105472Y-118817425D01*
X201217454Y-118817425D01*
X201217454Y-119929406D01*
G37*
%TD*%
M02*
