%TF.GenerationSoftware,KiCad,Pcbnew,(6.0.10)*%
%TF.CreationDate,2023-04-21T21:48:32+03:00*%
%TF.ProjectId,blaster_top,626c6173-7465-4725-9f74-6f702e6b6963,v1.0.0*%
%TF.SameCoordinates,Original*%
%TF.FileFunction,Legend,Bot*%
%TF.FilePolarity,Positive*%
%FSLAX46Y46*%
G04 Gerber Fmt 4.6, Leading zero omitted, Abs format (unit mm)*
G04 Created by KiCad (PCBNEW (6.0.10)) date 2023-04-21 21:48:32*
%MOMM*%
%LPD*%
G01*
G04 APERTURE LIST*
%ADD10C,0.300000*%
G04 APERTURE END LIST*
D10*
%TO.C, *%
G36*
X200476303Y-151997522D02*
G01*
X200263085Y-152143040D01*
X200210156Y-152158231D01*
X199951882Y-152152617D01*
X199698080Y-152054438D01*
X199529085Y-151891251D01*
X199483277Y-151781730D01*
X199478214Y-151701561D01*
X199551091Y-151701561D01*
X199685705Y-151923801D01*
X199803125Y-151997054D01*
X200041207Y-152056308D01*
X200279000Y-152044454D01*
X200441476Y-151958090D01*
X200519394Y-151835954D01*
X200575911Y-151582341D01*
X200516435Y-151350178D01*
X200370047Y-151168525D01*
X200165827Y-151066446D01*
X199932853Y-151073002D01*
X199700205Y-151217257D01*
X199560068Y-151444607D01*
X199551091Y-151701561D01*
X199478214Y-151701561D01*
X199464928Y-151491204D01*
X199571607Y-151227925D01*
X199777672Y-151036930D01*
X200057479Y-150963257D01*
X200228809Y-150998325D01*
X200462021Y-151134895D01*
X200643268Y-151329451D01*
X200716205Y-151533236D01*
X200716182Y-151536902D01*
X200702487Y-151582341D01*
X200645697Y-151770765D01*
X200476303Y-151997522D01*
G37*
G36*
X200813220Y-152036672D02*
G01*
X200544143Y-152302115D01*
X200266085Y-152432245D01*
X199945405Y-152452651D01*
X199655547Y-152352694D01*
X199418488Y-152158794D01*
X199256209Y-151897374D01*
X199190688Y-151594856D01*
X199207012Y-151497558D01*
X199277742Y-151497558D01*
X199296161Y-151809812D01*
X199454667Y-152083879D01*
X199746634Y-152282758D01*
X199849460Y-152325030D01*
X200031650Y-152384165D01*
X200170312Y-152380731D01*
X200344678Y-152319611D01*
X200406946Y-152290881D01*
X200665054Y-152078371D01*
X200825321Y-151786263D01*
X200853711Y-151471283D01*
X200836882Y-151389540D01*
X200685521Y-151081691D01*
X200439306Y-150880251D01*
X200137520Y-150797922D01*
X199819444Y-150847408D01*
X199524359Y-151041411D01*
X199406034Y-151184116D01*
X199277742Y-151497558D01*
X199207012Y-151497558D01*
X199243906Y-151277661D01*
X199437841Y-150972211D01*
X199586756Y-150831529D01*
X199785418Y-150733557D01*
X200060478Y-150709257D01*
X200291512Y-150734553D01*
X200609706Y-150876057D01*
X200831502Y-151111693D01*
X200946372Y-151406789D01*
X200945851Y-151471283D01*
X200943788Y-151726672D01*
X200813220Y-152036672D01*
G37*
G36*
X204693454Y-152005010D02*
G01*
X204672979Y-152028595D01*
X204496267Y-152174122D01*
X204238353Y-152339891D01*
X203953593Y-152495697D01*
X203696344Y-152611332D01*
X203520960Y-152656590D01*
X203410684Y-152677309D01*
X203219570Y-152739091D01*
X203002577Y-152821591D01*
X203249103Y-153310591D01*
X203269381Y-153351040D01*
X203488021Y-153835875D01*
X203605409Y-154221215D01*
X203616495Y-154378695D01*
X203627575Y-154536079D01*
X203560548Y-154809481D01*
X203417955Y-155028625D01*
X203171585Y-155165906D01*
X202829961Y-155180725D01*
X202385698Y-155073227D01*
X201831414Y-154843558D01*
X201811294Y-154834025D01*
X201547125Y-154714457D01*
X201353614Y-154636850D01*
X201271400Y-154617604D01*
X201269240Y-154621040D01*
X201227269Y-154727991D01*
X201150359Y-154948087D01*
X201053390Y-155238924D01*
X201016455Y-155347036D01*
X200807714Y-155805283D01*
X200543865Y-156149090D01*
X200419488Y-156263303D01*
X200216076Y-156409433D01*
X200067671Y-156466590D01*
X199933945Y-156446495D01*
X199664149Y-156283589D01*
X199404265Y-155964257D01*
X199160501Y-155497168D01*
X198939065Y-154890986D01*
X198752803Y-154289049D01*
X198187861Y-154578902D01*
X198185202Y-154580266D01*
X197708496Y-154793552D01*
X197312464Y-154907167D01*
X197013539Y-154918156D01*
X196828153Y-154823560D01*
X196826374Y-154821396D01*
X196742552Y-154588695D01*
X196745616Y-154555771D01*
X196831524Y-154555771D01*
X196923138Y-154756324D01*
X196929981Y-154762917D01*
X197132504Y-154841081D01*
X197445055Y-154799618D01*
X197870203Y-154637834D01*
X198410516Y-154355036D01*
X198550102Y-154272339D01*
X198693807Y-154158180D01*
X198740270Y-154034762D01*
X198723392Y-153847036D01*
X198678840Y-153559867D01*
X198639279Y-153301779D01*
X198750196Y-153301779D01*
X198782666Y-153594954D01*
X198853430Y-154034762D01*
X198867714Y-154123537D01*
X199035091Y-154846780D01*
X199241547Y-155443871D01*
X199481946Y-155900970D01*
X199751150Y-156204238D01*
X199780842Y-156227311D01*
X199987848Y-156354648D01*
X200158507Y-156360235D01*
X200360260Y-156249030D01*
X200385547Y-156230071D01*
X200591680Y-155990027D01*
X200795680Y-155612467D01*
X200984616Y-155125267D01*
X201145557Y-154556304D01*
X201190825Y-154351861D01*
X201312918Y-154351861D01*
X201402762Y-154475722D01*
X201637016Y-154633654D01*
X202004254Y-154816875D01*
X202358112Y-154960579D01*
X202806651Y-155081354D01*
X203142554Y-155083204D01*
X203362255Y-154965740D01*
X203484463Y-154735647D01*
X203510490Y-154378695D01*
X203417749Y-153937581D01*
X203208015Y-153429966D01*
X203167789Y-153350912D01*
X203020391Y-153083592D01*
X202899123Y-152896426D01*
X202827015Y-152825924D01*
X202811150Y-152825998D01*
X202769246Y-152835384D01*
X202762925Y-152881175D01*
X202801438Y-152992516D01*
X202894034Y-153198552D01*
X203049963Y-153528432D01*
X203134621Y-153715009D01*
X203303119Y-154188874D01*
X203352714Y-154549151D01*
X203349259Y-154561564D01*
X203284807Y-154793140D01*
X203100799Y-154918138D01*
X202802091Y-154921445D01*
X202390085Y-154800359D01*
X202331772Y-154776566D01*
X202004379Y-154622832D01*
X201703039Y-154455581D01*
X201604250Y-154397518D01*
X201423678Y-154312069D01*
X201331141Y-154299432D01*
X201312918Y-154351861D01*
X201190825Y-154351861D01*
X201199777Y-154311429D01*
X201217314Y-154216353D01*
X201435872Y-154216353D01*
X201986205Y-154495437D01*
X202102366Y-154552852D01*
X202556119Y-154742113D01*
X202910082Y-154827390D01*
X203150372Y-154804992D01*
X203211122Y-154753571D01*
X203260466Y-154561564D01*
X203229194Y-154269913D01*
X203121995Y-153908082D01*
X202943559Y-153505534D01*
X202630913Y-152897750D01*
X202118059Y-152955075D01*
X201881664Y-152987005D01*
X201654367Y-153031149D01*
X201542143Y-153071124D01*
X201509563Y-153164718D01*
X201477834Y-153383299D01*
X201457477Y-153673100D01*
X201435872Y-154216353D01*
X201217314Y-154216353D01*
X201281137Y-153870347D01*
X201344406Y-153433502D01*
X201386486Y-153033239D01*
X201396993Y-152837540D01*
X201562872Y-152837540D01*
X201562915Y-152839533D01*
X201637554Y-152893657D01*
X201857884Y-152896239D01*
X202228981Y-152846889D01*
X202755921Y-152745212D01*
X203336784Y-152600398D01*
X203900245Y-152401499D01*
X204328652Y-152178217D01*
X204616422Y-151937325D01*
X204757974Y-151685596D01*
X204747722Y-151429805D01*
X204580086Y-151176724D01*
X204249481Y-150933127D01*
X204240487Y-150928006D01*
X203916801Y-150765438D01*
X203580662Y-150630745D01*
X203272760Y-150536451D01*
X203033788Y-150495081D01*
X202904437Y-150519158D01*
X202891239Y-150547611D01*
X202975849Y-150622221D01*
X203219753Y-150701906D01*
X203572449Y-150808023D01*
X203985109Y-150981984D01*
X204314244Y-151179075D01*
X204532087Y-151381906D01*
X204607232Y-151564255D01*
X204610872Y-151573089D01*
X204610758Y-151580482D01*
X204523513Y-151785168D01*
X204286703Y-151991341D01*
X203919089Y-152190474D01*
X203439433Y-152374037D01*
X202921059Y-152518317D01*
X202866495Y-152533504D01*
X202219038Y-152660344D01*
X202137324Y-152673881D01*
X201844969Y-152732837D01*
X201640092Y-152791006D01*
X201562872Y-152837540D01*
X201396993Y-152837540D01*
X201404275Y-152701905D01*
X201394674Y-152471847D01*
X201371337Y-152415712D01*
X201562872Y-152415712D01*
X201563063Y-152451245D01*
X201578606Y-152575457D01*
X201646479Y-152632302D01*
X201804888Y-152634795D01*
X202092038Y-152595947D01*
X202252011Y-152560062D01*
X202324872Y-152518317D01*
X202316862Y-152496596D01*
X202237731Y-152370569D01*
X202101339Y-152182891D01*
X202030146Y-152090973D01*
X201913182Y-151966905D01*
X201825902Y-151953676D01*
X201720339Y-152032329D01*
X201616864Y-152185656D01*
X201562872Y-152415712D01*
X201371337Y-152415712D01*
X201354583Y-152375411D01*
X201346783Y-152366953D01*
X201385978Y-152268633D01*
X201515469Y-152088121D01*
X201713734Y-151856512D01*
X201748017Y-151816650D01*
X201989952Y-151816650D01*
X202061649Y-151984074D01*
X202222479Y-152202438D01*
X202347974Y-152330349D01*
X202519553Y-152431081D01*
X202731738Y-152455397D01*
X203022601Y-152405904D01*
X203430214Y-152285214D01*
X203565727Y-152239614D01*
X204032365Y-152048525D01*
X204347598Y-151855197D01*
X204502557Y-151664762D01*
X204505061Y-151564255D01*
X204389932Y-151386760D01*
X204152915Y-151199312D01*
X203819778Y-151020764D01*
X203416289Y-150869971D01*
X202810156Y-150685864D01*
X202527939Y-151015060D01*
X202420416Y-151143354D01*
X202252067Y-151382767D01*
X202198482Y-151571704D01*
X202254169Y-151756736D01*
X202413637Y-151984431D01*
X202511438Y-152115068D01*
X202617503Y-152284628D01*
X202640508Y-152369176D01*
X202608972Y-152362040D01*
X202501335Y-152258385D01*
X202355134Y-152070746D01*
X202268497Y-151953652D01*
X202131264Y-151791478D01*
X202049705Y-151727065D01*
X202018855Y-151731719D01*
X201989952Y-151816650D01*
X201748017Y-151816650D01*
X202149011Y-151350395D01*
X202603548Y-150745934D01*
X202980046Y-150157198D01*
X203265354Y-149607190D01*
X203446319Y-149118909D01*
X203509792Y-148715357D01*
X203504020Y-148566071D01*
X203467570Y-148325378D01*
X203408605Y-148186190D01*
X203348318Y-148141040D01*
X203098877Y-148077842D01*
X202753834Y-148100772D01*
X202347182Y-148205271D01*
X201912914Y-148386780D01*
X201833860Y-148427006D01*
X201566540Y-148574405D01*
X201379374Y-148695672D01*
X201308872Y-148767780D01*
X201308910Y-148778148D01*
X201317407Y-148823728D01*
X201361254Y-148832983D01*
X201469769Y-148796658D01*
X201672273Y-148705500D01*
X201998084Y-148550257D01*
X202396871Y-148379917D01*
X202813296Y-148266815D01*
X203117770Y-148272114D01*
X203306990Y-148394728D01*
X203377652Y-148633570D01*
X203369269Y-148691528D01*
X203326455Y-148987551D01*
X203303727Y-149064299D01*
X203101791Y-149554583D01*
X202787672Y-150120614D01*
X202586644Y-150423088D01*
X202441254Y-150641847D01*
X202378239Y-150736661D01*
X201911498Y-151349254D01*
X201890366Y-151376990D01*
X201340923Y-152015870D01*
X201198148Y-152177137D01*
X201011377Y-152408117D01*
X200901288Y-152572858D01*
X200888105Y-152643335D01*
X200986514Y-152628172D01*
X201140694Y-152528544D01*
X201171320Y-152499845D01*
X201226101Y-152448434D01*
X201261071Y-152433294D01*
X201276114Y-152476394D01*
X201271116Y-152599704D01*
X201245962Y-152825193D01*
X201233165Y-152923693D01*
X201200631Y-153174102D01*
X201200536Y-153174831D01*
X201134725Y-153670587D01*
X201088789Y-153974094D01*
X201067013Y-154077736D01*
X200974812Y-154516571D01*
X200964481Y-154565744D01*
X200807358Y-155099515D01*
X200626950Y-155553245D01*
X200432791Y-155904774D01*
X200234411Y-156131943D01*
X200041342Y-156212590D01*
X200034799Y-156212387D01*
X199880750Y-156132054D01*
X199699417Y-155932405D01*
X199519617Y-155651454D01*
X199370166Y-155327214D01*
X199345871Y-155259912D01*
X199231338Y-154887609D01*
X199123967Y-154464380D01*
X199234499Y-154464380D01*
X199275392Y-154686303D01*
X199366336Y-155027257D01*
X199385455Y-155090935D01*
X199497629Y-155377589D01*
X199639101Y-155662257D01*
X199712141Y-155777817D01*
X199914959Y-155978868D01*
X200119766Y-156019445D01*
X200315476Y-155895724D01*
X200458725Y-155688591D01*
X200622634Y-155356591D01*
X200761588Y-154985146D01*
X200846976Y-154641756D01*
X200864381Y-154516571D01*
X200856348Y-154349250D01*
X200770048Y-154214630D01*
X200575619Y-154047289D01*
X200357395Y-153876862D01*
X200167849Y-153759559D01*
X200015889Y-153740942D01*
X199848854Y-153817679D01*
X199614087Y-153986438D01*
X199520928Y-154055700D01*
X199346386Y-154194788D01*
X199254537Y-154315778D01*
X199234499Y-154464380D01*
X199123967Y-154464380D01*
X199121219Y-154453550D01*
X199032526Y-154036555D01*
X199143606Y-154036555D01*
X199164061Y-154120863D01*
X199179528Y-154122468D01*
X199302308Y-154065841D01*
X199504878Y-153934529D01*
X199749923Y-153756453D01*
X199998477Y-153560836D01*
X200217759Y-153560836D01*
X200272438Y-153666185D01*
X200419872Y-153811365D01*
X200536546Y-153905065D01*
X200782819Y-154080422D01*
X200924231Y-154136746D01*
X200968397Y-154077736D01*
X200960088Y-154047242D01*
X200861133Y-153924069D01*
X200689124Y-153777051D01*
X200493020Y-153641305D01*
X200321778Y-153551944D01*
X200224357Y-153544083D01*
X200217759Y-153560836D01*
X199998477Y-153560836D01*
X200000125Y-153559539D01*
X200212529Y-153376569D01*
X200425234Y-153376569D01*
X200471616Y-153472417D01*
X200634452Y-153619716D01*
X200762217Y-153722149D01*
X200936698Y-153824707D01*
X201028581Y-153800676D01*
X201056028Y-153651424D01*
X201065071Y-153515625D01*
X201108236Y-153270424D01*
X201126476Y-153174102D01*
X201081122Y-153096986D01*
X200908536Y-153079924D01*
X200844616Y-153092758D01*
X200703014Y-153121189D01*
X200514078Y-153238716D01*
X200478540Y-153279100D01*
X200425234Y-153376569D01*
X200212529Y-153376569D01*
X200218169Y-153371711D01*
X200366739Y-153220892D01*
X200404942Y-153171581D01*
X200437123Y-153092758D01*
X200365303Y-153102635D01*
X200209981Y-153187745D01*
X200147007Y-153230111D01*
X199991658Y-153334622D01*
X199730831Y-153529801D01*
X199447999Y-153759816D01*
X199163661Y-154011201D01*
X199143606Y-154036555D01*
X199032526Y-154036555D01*
X199027601Y-154013401D01*
X198962568Y-153622827D01*
X198938205Y-153337493D01*
X198936607Y-153326999D01*
X199022872Y-153326999D01*
X199035968Y-153525451D01*
X199074264Y-153707999D01*
X199083925Y-153732319D01*
X199136557Y-153814891D01*
X199217464Y-153816962D01*
X199359321Y-153727769D01*
X199594806Y-153536551D01*
X199733351Y-153412089D01*
X199879917Y-153230111D01*
X199878229Y-153118110D01*
X199727175Y-153079924D01*
X199690082Y-153081025D01*
X199639300Y-153114458D01*
X199711005Y-153226629D01*
X199778960Y-153319359D01*
X199748258Y-153319426D01*
X199597351Y-153226629D01*
X199466262Y-153151264D01*
X199226045Y-153076501D01*
X199075193Y-153135613D01*
X199022872Y-153326999D01*
X198936607Y-153326999D01*
X198910568Y-153156044D01*
X198825218Y-153079924D01*
X198802520Y-153082795D01*
X198755924Y-153141837D01*
X198750196Y-153301779D01*
X198639279Y-153301779D01*
X198636296Y-153282317D01*
X198631301Y-153250313D01*
X198596757Y-153118367D01*
X198519476Y-153042333D01*
X198357473Y-152998646D01*
X198068767Y-152963736D01*
X197882156Y-152945531D01*
X197666569Y-152943183D01*
X197510361Y-152994097D01*
X197380373Y-153123125D01*
X197243446Y-153355117D01*
X197066419Y-153714924D01*
X197008659Y-153839273D01*
X196859734Y-154252248D01*
X196831524Y-154555771D01*
X196745616Y-154555771D01*
X196773876Y-154252125D01*
X196914441Y-153825971D01*
X197158338Y-153324519D01*
X197499661Y-152762055D01*
X197514663Y-152740941D01*
X197595779Y-152740941D01*
X197641809Y-152786127D01*
X197838004Y-152843658D01*
X198036993Y-152875522D01*
X198359665Y-152907013D01*
X198759706Y-152933711D01*
X199206321Y-152954870D01*
X199668714Y-152969743D01*
X200116091Y-152977584D01*
X200517657Y-152977646D01*
X200842617Y-152969182D01*
X201060176Y-152951447D01*
X201139538Y-152923693D01*
X201111827Y-152891053D01*
X200954887Y-152854026D01*
X200650122Y-152832446D01*
X200187038Y-152825229D01*
X199931753Y-152822463D01*
X199415061Y-152805378D01*
X198907089Y-152776204D01*
X198488121Y-152739017D01*
X198169551Y-152709902D01*
X197878563Y-152699785D01*
X197681001Y-152711146D01*
X197595779Y-152740941D01*
X197514663Y-152740941D01*
X197650823Y-152549306D01*
X197750025Y-152549306D01*
X198068949Y-152602016D01*
X198079203Y-152603708D01*
X198362962Y-152644045D01*
X198519332Y-152639532D01*
X198585722Y-152579756D01*
X198599538Y-152454303D01*
X198588767Y-152377416D01*
X198520801Y-152200294D01*
X198479833Y-152130974D01*
X198690165Y-152130974D01*
X198700422Y-152431619D01*
X198703394Y-152454303D01*
X198722813Y-152602506D01*
X198757769Y-152656590D01*
X198765577Y-152654769D01*
X198805552Y-152564900D01*
X198828446Y-152378879D01*
X198938840Y-152378879D01*
X199025234Y-152532437D01*
X199097008Y-152596252D01*
X199259664Y-152656590D01*
X199305965Y-152649621D01*
X199308301Y-152586914D01*
X199187475Y-152439889D01*
X199090545Y-152354557D01*
X198972411Y-152312854D01*
X198938840Y-152378879D01*
X198828446Y-152378879D01*
X198834074Y-152333154D01*
X198851883Y-151950462D01*
X198856859Y-151605810D01*
X198938205Y-151605810D01*
X198944425Y-151873826D01*
X198982188Y-152075815D01*
X199078239Y-152237670D01*
X199259275Y-152427741D01*
X199377562Y-152539310D01*
X199443347Y-152586914D01*
X199561140Y-152672152D01*
X199758040Y-152729143D01*
X200045980Y-152741257D01*
X200291831Y-152734282D01*
X200485449Y-152691650D01*
X200654641Y-152583048D01*
X200867910Y-152378219D01*
X201021204Y-152215752D01*
X201154243Y-152031905D01*
X201211780Y-151846194D01*
X201224205Y-151591514D01*
X201218336Y-151393432D01*
X201176509Y-151199976D01*
X201067684Y-151027997D01*
X200861167Y-150811552D01*
X200673213Y-150635394D01*
X200496551Y-150515347D01*
X200305954Y-150465287D01*
X200031683Y-150455257D01*
X199845309Y-150458557D01*
X199679378Y-150483785D01*
X199625004Y-150492052D01*
X199452401Y-150587578D01*
X199251721Y-150776327D01*
X199098082Y-150942798D01*
X198991690Y-151110945D01*
X198947183Y-151308704D01*
X198938205Y-151605810D01*
X198856859Y-151605810D01*
X198859719Y-151407757D01*
X198860733Y-151274986D01*
X198870046Y-150787021D01*
X198870140Y-150784442D01*
X198946901Y-150784442D01*
X199035546Y-150788134D01*
X199187475Y-150671958D01*
X199265134Y-150584796D01*
X199322008Y-150483785D01*
X199259664Y-150455257D01*
X199177376Y-150473032D01*
X199025234Y-150579410D01*
X198956942Y-150681078D01*
X198946901Y-150784442D01*
X198870140Y-150784442D01*
X198886653Y-150329990D01*
X198889194Y-150285924D01*
X199022872Y-150285924D01*
X199025392Y-150293905D01*
X199130774Y-150333878D01*
X199367972Y-150360755D01*
X199705202Y-150370590D01*
X199730147Y-150370555D01*
X200079672Y-150359811D01*
X200285530Y-150331040D01*
X200335205Y-150285924D01*
X200329680Y-150279716D01*
X200205157Y-150239953D01*
X199964139Y-150211887D01*
X199652875Y-150201257D01*
X199626634Y-150201320D01*
X199314518Y-150213406D01*
X199101610Y-150243173D01*
X199022872Y-150285924D01*
X198889194Y-150285924D01*
X198908561Y-149950025D01*
X198923384Y-149799090D01*
X199024168Y-149799090D01*
X199034423Y-149994896D01*
X199090160Y-150094172D01*
X199221416Y-150116590D01*
X199392527Y-150072063D01*
X199506128Y-149991452D01*
X199700205Y-149991452D01*
X199729311Y-150034888D01*
X199864200Y-149998093D01*
X200011264Y-149906260D01*
X200231522Y-149906260D01*
X200290386Y-150018562D01*
X200440315Y-150205820D01*
X200515538Y-150285924D01*
X200656693Y-150436238D01*
X200725929Y-150504313D01*
X200940949Y-150697613D01*
X201086200Y-150798187D01*
X201139538Y-150789820D01*
X201129372Y-150749538D01*
X201094328Y-150694277D01*
X201276182Y-150694277D01*
X201280133Y-150789820D01*
X201286367Y-150940582D01*
X201305477Y-151259590D01*
X201311666Y-151345162D01*
X201337658Y-151591514D01*
X201342689Y-151639195D01*
X201377908Y-151788922D01*
X201414705Y-151781832D01*
X201437032Y-151706985D01*
X201467711Y-151476202D01*
X201473524Y-151296927D01*
X201562872Y-151296927D01*
X201579413Y-151400131D01*
X201647538Y-151471257D01*
X201684866Y-151458681D01*
X201732205Y-151349254D01*
X201725443Y-151297426D01*
X201647538Y-151174924D01*
X201595465Y-151179857D01*
X201591897Y-151192672D01*
X201562872Y-151296927D01*
X201473524Y-151296927D01*
X201476905Y-151192672D01*
X201465848Y-150911713D01*
X201448196Y-150780801D01*
X201562872Y-150780801D01*
X201601450Y-150974117D01*
X201718300Y-151162339D01*
X201774003Y-151209813D01*
X201862366Y-151243345D01*
X201955319Y-151176442D01*
X202097328Y-150988740D01*
X202217616Y-150792839D01*
X202238629Y-150641847D01*
X202115675Y-150564139D01*
X201838038Y-150541220D01*
X201677341Y-150550195D01*
X201582767Y-150614648D01*
X201562872Y-150780801D01*
X201448196Y-150780801D01*
X201435770Y-150688642D01*
X201387906Y-150578775D01*
X201353901Y-150560582D01*
X201278678Y-150552612D01*
X201276526Y-150562948D01*
X201276182Y-150694277D01*
X201094328Y-150694277D01*
X201035692Y-150601815D01*
X200872702Y-150409160D01*
X200730326Y-150262782D01*
X200913570Y-150262782D01*
X200916150Y-150266235D01*
X201031787Y-150316620D01*
X201265424Y-150367293D01*
X201569652Y-150407778D01*
X201583903Y-150409191D01*
X201897008Y-150444563D01*
X202147620Y-150480468D01*
X202282633Y-150509342D01*
X202331720Y-150519385D01*
X202442821Y-150469901D01*
X202458235Y-150423088D01*
X202411043Y-150366606D01*
X202260405Y-150320823D01*
X201984401Y-150279981D01*
X201561111Y-150238323D01*
X201552591Y-150237582D01*
X201174970Y-150213898D01*
X200961630Y-150222310D01*
X200913570Y-150262782D01*
X200730326Y-150262782D01*
X200675785Y-150206708D01*
X200480325Y-150029595D01*
X200321706Y-149912957D01*
X200235311Y-149891929D01*
X200231522Y-149906260D01*
X200011264Y-149906260D01*
X200098301Y-149851910D01*
X200190780Y-149780236D01*
X200335205Y-149780236D01*
X200535085Y-149948413D01*
X200727192Y-150062451D01*
X200947126Y-150116590D01*
X201017439Y-150114227D01*
X201119472Y-150067720D01*
X201108236Y-149926090D01*
X201075945Y-149754018D01*
X201056028Y-149499778D01*
X201055624Y-149474470D01*
X201031640Y-149349451D01*
X200954212Y-149326678D01*
X200800302Y-149411018D01*
X200546872Y-149607338D01*
X200335205Y-149780236D01*
X200190780Y-149780236D01*
X200419872Y-149602684D01*
X200694048Y-149368061D01*
X200896731Y-149168763D01*
X200966876Y-149053217D01*
X200909068Y-149015924D01*
X200906661Y-149016134D01*
X200808577Y-149071681D01*
X200624072Y-149204919D01*
X200390145Y-149385990D01*
X200143795Y-149585036D01*
X200106141Y-149616814D01*
X199928397Y-149766822D01*
X199922023Y-149772201D01*
X199761826Y-149917626D01*
X199700205Y-149991452D01*
X199506128Y-149991452D01*
X199581250Y-149938146D01*
X199650159Y-149858450D01*
X199687757Y-149766822D01*
X199626512Y-149669667D01*
X199450590Y-149515803D01*
X199448056Y-149513689D01*
X199241462Y-149370297D01*
X199111860Y-149363483D01*
X199044384Y-149503121D01*
X199024168Y-149799090D01*
X198923384Y-149799090D01*
X198933778Y-149693257D01*
X198957049Y-149500914D01*
X198969842Y-149271056D01*
X198955988Y-149149615D01*
X198915729Y-149112984D01*
X198873367Y-149170445D01*
X198858045Y-149191228D01*
X198807484Y-149430788D01*
X198764676Y-149826837D01*
X198732970Y-150331339D01*
X198730255Y-150374546D01*
X198717255Y-150729942D01*
X198704850Y-151069090D01*
X198704326Y-151088600D01*
X198691610Y-151687619D01*
X198691057Y-151857254D01*
X198690165Y-152130974D01*
X198479833Y-152130974D01*
X198418214Y-152026710D01*
X198313802Y-151907772D01*
X198240363Y-151894590D01*
X198221508Y-151918598D01*
X198122435Y-152049355D01*
X197977652Y-152243115D01*
X197750025Y-152549306D01*
X197650823Y-152549306D01*
X197932503Y-152152862D01*
X198013626Y-152045194D01*
X198187243Y-151804927D01*
X198345538Y-151804927D01*
X198348768Y-151828681D01*
X198430205Y-151936924D01*
X198473826Y-151944888D01*
X198514872Y-151857254D01*
X198504510Y-151794172D01*
X198430205Y-151725257D01*
X198410117Y-151727537D01*
X198345538Y-151804927D01*
X198187243Y-151804927D01*
X198268199Y-151692892D01*
X198437659Y-151432946D01*
X198516745Y-151275249D01*
X198500196Y-151229694D01*
X198382752Y-151306173D01*
X198307896Y-151376945D01*
X198143294Y-151567459D01*
X198103066Y-151614020D01*
X197852970Y-151941708D01*
X197583969Y-152322087D01*
X197322421Y-152717240D01*
X197094686Y-153089245D01*
X196927122Y-153400185D01*
X196909134Y-153437874D01*
X196689741Y-153968559D01*
X196588700Y-154389752D01*
X196604811Y-154711184D01*
X196736872Y-154942590D01*
X196930171Y-155061056D01*
X197263887Y-155094722D01*
X197689983Y-155001303D01*
X198198815Y-154781859D01*
X198204668Y-154778844D01*
X198465767Y-154653056D01*
X198662449Y-154574248D01*
X198752538Y-154559367D01*
X198728487Y-154605258D01*
X198584066Y-154695935D01*
X198350496Y-154810162D01*
X198066619Y-154931495D01*
X197771276Y-155043489D01*
X197503310Y-155129700D01*
X197301560Y-155173682D01*
X197172509Y-155183704D01*
X196925965Y-155151983D01*
X196705336Y-155021212D01*
X196603257Y-154935303D01*
X196514100Y-154814452D01*
X196488849Y-154651085D01*
X196508224Y-154382747D01*
X196558598Y-154116633D01*
X196671009Y-153744269D01*
X196814927Y-153390111D01*
X196826636Y-153365533D01*
X196952482Y-153095525D01*
X197041666Y-152893678D01*
X197075538Y-152802075D01*
X197073644Y-152796900D01*
X196979938Y-152752930D01*
X196788565Y-152706265D01*
X196595603Y-152651426D01*
X196296672Y-152536715D01*
X195982555Y-152393064D01*
X195954734Y-152378984D01*
X195555416Y-152120822D01*
X195320885Y-151846719D01*
X195250772Y-151573729D01*
X195297538Y-151573729D01*
X195314812Y-151668193D01*
X195450523Y-151892118D01*
X195690634Y-152118505D01*
X195998406Y-152308823D01*
X196249474Y-152421375D01*
X196584391Y-152547164D01*
X196881512Y-152634028D01*
X197102248Y-152671157D01*
X197208010Y-152647738D01*
X197217540Y-152610267D01*
X197144405Y-152535423D01*
X197115053Y-152526206D01*
X196935023Y-152470760D01*
X196694538Y-152397564D01*
X196596817Y-152366981D01*
X196103372Y-152172018D01*
X195761802Y-151959028D01*
X195575484Y-151734380D01*
X195563541Y-151635189D01*
X195644222Y-151635189D01*
X195773414Y-151843248D01*
X196065660Y-152042001D01*
X196184895Y-152099191D01*
X196544237Y-152244640D01*
X196893698Y-152356957D01*
X197334614Y-152473269D01*
X197676560Y-152020364D01*
X198018507Y-151567459D01*
X197695189Y-151143180D01*
X197532537Y-150945575D01*
X197368161Y-150779658D01*
X197264784Y-150714965D01*
X197519465Y-150714965D01*
X197596525Y-150853755D01*
X197767225Y-151097582D01*
X197878798Y-151244963D01*
X198021344Y-151407904D01*
X198105891Y-151471257D01*
X198116194Y-151470980D01*
X198170912Y-151430559D01*
X198122769Y-151307765D01*
X197964538Y-151082731D01*
X197900513Y-150996266D01*
X197783744Y-150813113D01*
X197764343Y-150737807D01*
X197838369Y-150783112D01*
X198001881Y-150961791D01*
X198110039Y-151089883D01*
X198221668Y-151191300D01*
X198309135Y-151188219D01*
X198422936Y-151096835D01*
X198538451Y-150941535D01*
X198599538Y-150729942D01*
X198596202Y-150644768D01*
X198557471Y-150566970D01*
X198439180Y-150548620D01*
X198197372Y-150572512D01*
X198077009Y-150586880D01*
X197818010Y-150614643D01*
X197647038Y-150628633D01*
X197614966Y-150630377D01*
X197528220Y-150650683D01*
X197519465Y-150714965D01*
X197264784Y-150714965D01*
X197263368Y-150714079D01*
X197200584Y-150718832D01*
X196973384Y-150773453D01*
X196672114Y-150872439D01*
X196351155Y-150995560D01*
X196064889Y-151122585D01*
X195867699Y-151233283D01*
X195680020Y-151425726D01*
X195644222Y-151635189D01*
X195563541Y-151635189D01*
X195547798Y-151504444D01*
X195682124Y-151275588D01*
X195981838Y-151054181D01*
X196032663Y-151027671D01*
X196320592Y-150910283D01*
X196708379Y-150783283D01*
X197144339Y-150660477D01*
X197576786Y-150555669D01*
X197954034Y-150482660D01*
X198224398Y-150455257D01*
X198284657Y-150452777D01*
X198477174Y-150409150D01*
X198593204Y-150331339D01*
X198586850Y-150245862D01*
X198584522Y-150244110D01*
X198471649Y-150239595D01*
X198235152Y-150267292D01*
X197913221Y-150319952D01*
X197544041Y-150390329D01*
X197165802Y-150471174D01*
X196816692Y-150555242D01*
X196534897Y-150635284D01*
X196207023Y-150766686D01*
X195861148Y-150959849D01*
X195571153Y-151176280D01*
X195371723Y-151389675D01*
X195297538Y-151573729D01*
X195250772Y-151573729D01*
X195248600Y-151565273D01*
X195336018Y-151285079D01*
X195580598Y-151014733D01*
X195979798Y-150762831D01*
X196531076Y-150537970D01*
X196536413Y-150536192D01*
X196808197Y-150440446D01*
X197001770Y-150362450D01*
X197075538Y-150318940D01*
X197075521Y-150318463D01*
X197038748Y-150226759D01*
X196944995Y-150027606D01*
X196814162Y-149763311D01*
X196700635Y-149506655D01*
X196574365Y-149129197D01*
X196507092Y-148802796D01*
X196502170Y-148751536D01*
X196582581Y-148751536D01*
X196676636Y-149194482D01*
X196901473Y-149738811D01*
X196914798Y-149765618D01*
X197060538Y-150028774D01*
X197190320Y-150215161D01*
X197277442Y-150285924D01*
X197286710Y-150283950D01*
X197292281Y-150191806D01*
X197215182Y-149972831D01*
X197060470Y-149642035D01*
X196911879Y-149319811D01*
X196770669Y-148890437D01*
X196759391Y-148743738D01*
X196871400Y-148743738D01*
X196873265Y-148786173D01*
X196961196Y-149186081D01*
X197175194Y-149675072D01*
X197200324Y-149722541D01*
X197357350Y-149988796D01*
X197496786Y-150179369D01*
X197590999Y-150255673D01*
X197591723Y-150255744D01*
X197754797Y-150249423D01*
X197996985Y-150217700D01*
X198256430Y-150171566D01*
X198471274Y-150122010D01*
X198579662Y-150080022D01*
X198606701Y-150012786D01*
X198651221Y-149816065D01*
X198695522Y-149545021D01*
X198717540Y-149375397D01*
X198724478Y-149170445D01*
X198675329Y-149019644D01*
X198545777Y-148891505D01*
X198311504Y-148754538D01*
X197948194Y-148577253D01*
X197835303Y-148525596D01*
X197441374Y-148386738D01*
X197143860Y-148354033D01*
X197049352Y-148364525D01*
X196922633Y-148406372D01*
X196875142Y-148515862D01*
X196871400Y-148743738D01*
X196759391Y-148743738D01*
X196745765Y-148566486D01*
X196838472Y-148355524D01*
X197010890Y-148272744D01*
X197305646Y-148272219D01*
X197680802Y-148361285D01*
X198109224Y-148530967D01*
X198563781Y-148772290D01*
X199017339Y-149076277D01*
X199064144Y-149111304D01*
X199277755Y-149271056D01*
X199336876Y-149315270D01*
X199586755Y-149501974D01*
X199632130Y-149534455D01*
X199810595Y-149628092D01*
X199906789Y-149616814D01*
X199878039Y-149541661D01*
X199730824Y-149396204D01*
X199489150Y-149204697D01*
X199180938Y-148986783D01*
X198893295Y-148800449D01*
X199220773Y-148800449D01*
X199284718Y-148936235D01*
X199464290Y-149078248D01*
X199497307Y-149100751D01*
X199727576Y-149259250D01*
X199911872Y-149388368D01*
X200009717Y-149442688D01*
X200116926Y-149439381D01*
X200267545Y-149356943D01*
X200504538Y-149180292D01*
X200577533Y-149123283D01*
X200767039Y-148959877D01*
X200867351Y-148813403D01*
X200886515Y-148639765D01*
X200832575Y-148394869D01*
X200713578Y-148034620D01*
X200565761Y-147668645D01*
X200394011Y-147355607D01*
X200224991Y-147145426D01*
X200078738Y-147068590D01*
X200032753Y-147075079D01*
X199855494Y-147194022D01*
X199669705Y-147438134D01*
X199493066Y-147775224D01*
X199343256Y-148173097D01*
X199237956Y-148599561D01*
X199220773Y-148800449D01*
X198893295Y-148800449D01*
X198834107Y-148762107D01*
X198476574Y-148550313D01*
X198136260Y-148371046D01*
X197890578Y-148260727D01*
X197409345Y-148109680D01*
X197032688Y-148089043D01*
X196765848Y-148193011D01*
X196614065Y-148415777D01*
X196582581Y-148751536D01*
X196502170Y-148751536D01*
X196498849Y-148716942D01*
X196492976Y-148470732D01*
X196539204Y-148309566D01*
X196652250Y-148169212D01*
X196715531Y-148110292D01*
X196851269Y-148030531D01*
X197034306Y-148005469D01*
X197324451Y-148022008D01*
X197787988Y-148115450D01*
X198266170Y-148307471D01*
X198480907Y-148419929D01*
X198682670Y-148524798D01*
X198781802Y-148575249D01*
X198783032Y-148574219D01*
X198989353Y-148574219D01*
X199010213Y-148698464D01*
X199044665Y-148697270D01*
X199117442Y-148583854D01*
X199193214Y-148364390D01*
X199291072Y-148047070D01*
X199466329Y-147620158D01*
X199659492Y-147283679D01*
X199854987Y-147063109D01*
X200037236Y-146983924D01*
X200077416Y-146988654D01*
X200266505Y-147097197D01*
X200472871Y-147324567D01*
X200665058Y-147637992D01*
X200703335Y-147724751D01*
X200803180Y-148019299D01*
X200912451Y-148412823D01*
X200966983Y-148639765D01*
X201019433Y-148858041D01*
X201059791Y-149053217D01*
X201112405Y-149307668D01*
X201179651Y-149714424D01*
X201202485Y-149848271D01*
X201257449Y-150040898D01*
X201277510Y-150067720D01*
X201314060Y-150116590D01*
X201355027Y-150102550D01*
X201382919Y-150026819D01*
X201378958Y-149862425D01*
X201341977Y-149583721D01*
X201304814Y-149365096D01*
X201402778Y-149365096D01*
X201446896Y-149720238D01*
X201475545Y-149907637D01*
X201520771Y-150026819D01*
X201531363Y-150054733D01*
X201652973Y-150122767D01*
X201891396Y-150162506D01*
X202001743Y-150178146D01*
X202254610Y-150219021D01*
X202418752Y-150252619D01*
X202493766Y-150262571D01*
X202585056Y-150225809D01*
X202685949Y-150109393D01*
X202816561Y-149888473D01*
X202997007Y-149538194D01*
X203088849Y-149343822D01*
X203214856Y-148982107D01*
X203239738Y-148691528D01*
X203239029Y-148683092D01*
X203205526Y-148479603D01*
X203117596Y-148388182D01*
X202923226Y-148353238D01*
X202723444Y-148363414D01*
X202418623Y-148454123D01*
X202013060Y-148640005D01*
X201938465Y-148677885D01*
X201648216Y-148834138D01*
X201478686Y-148969272D01*
X201405125Y-149130516D01*
X201402778Y-149365096D01*
X201304814Y-149365096D01*
X201270811Y-149165061D01*
X201173349Y-148687715D01*
X200990951Y-148035689D01*
X200777211Y-147508982D01*
X200539897Y-147129231D01*
X200428158Y-147007852D01*
X200166583Y-146838721D01*
X199910763Y-146838504D01*
X199660042Y-147007326D01*
X199413764Y-147345314D01*
X199372890Y-147419210D01*
X199232947Y-147719529D01*
X199113714Y-148041183D01*
X199028185Y-148340603D01*
X198989353Y-148574219D01*
X198783032Y-148574219D01*
X198818702Y-148544338D01*
X198895080Y-148392185D01*
X198983773Y-148152400D01*
X199084313Y-147866829D01*
X199325250Y-147339244D01*
X199584450Y-146973851D01*
X199859963Y-146772354D01*
X200149842Y-146736459D01*
X200452137Y-146867868D01*
X200471131Y-146882499D01*
X200623881Y-147062757D01*
X200797974Y-147346781D01*
X200967709Y-147684168D01*
X201107385Y-148024516D01*
X201191299Y-148317424D01*
X201195765Y-148340675D01*
X201237662Y-148519346D01*
X201269062Y-148592590D01*
X201279317Y-148589478D01*
X201399861Y-148537145D01*
X201623848Y-148433600D01*
X201913417Y-148296257D01*
X202264857Y-148145427D01*
X202755986Y-148009961D01*
X203142899Y-148005169D01*
X203419839Y-148125136D01*
X203581050Y-148363946D01*
X203620737Y-148715357D01*
X203620774Y-148715682D01*
X203533256Y-149174429D01*
X203312738Y-149734271D01*
X203018194Y-150354497D01*
X203598324Y-150541034D01*
X203883768Y-150644460D01*
X204335447Y-150874770D01*
X204650283Y-151136712D01*
X204820248Y-151419555D01*
X204835744Y-151685596D01*
X204837315Y-151712565D01*
X204693454Y-152005010D01*
G37*
%TD*%
M02*
